<svg width="800" height="600" viewBox="0 0 800 600" fill="none" xmlns="http://www.w3.org/2000/svg">
<path d="M663.852 247.667C608.098 145.091 395.441 116.794 272.8 172.999C213.779 200.048 185.247 275.767 201.856 333.758C222.617 406.245 436.762 413.635 568.376 375.939C715.385 333.834 679.408 276.287 663.852 247.667Z" fill="url(#paint0_linear)"/>
<path d="M665.661 365.695C686.669 360.489 737.114 350.075 737.114 340.096L96.8521 342.429C96.8521 342.429 96.8521 371.5 150.613 371.5C183.526 371.5 214.025 371.526 214.025 379.77C214.025 390.618 175.472 383.485 175.472 394.332C175.472 405.18 206.284 409.518 256.003 409.518C305.722 409.518 532.61 409.085 592.132 409.518C651.655 409.952 677.565 391.729 656.557 386.088C635.549 380.448 644.652 370.902 665.661 365.695Z" fill="#9CB0F4"/>
<ellipse cx="525.614" cy="448.5" rx="150.5" ry="19.5" fill="#F3F3F3"/>
<ellipse cx="293.613" cy="451.5" rx="132.5" ry="19.5" fill="#F3F3F3"/>
<path d="M298.512 441.688C295.109 431.488 291.493 410.672 258.848 381.22C266.799 413.078 298.512 441.688 298.512 441.688Z" fill="#97ADFB"/>
<path d="M298.845 441.382C297.787 430.705 298.88 409.656 273.519 373.752C274.209 406.504 298.845 441.382 298.845 441.382Z" fill="#97ADFB"/>
<path d="M298.914 441.506C300.682 430.953 307.244 410.984 292.083 369.796C284.186 401.495 298.914 441.506 298.914 441.506Z" fill="#6885EF" fill-opacity="0.43"/>
<path d="M298.712 441.315C303.595 431.827 315.912 414.845 313.87 371.136C296.728 398.854 298.712 441.315 298.712 441.315Z" fill="#6885EF" fill-opacity="0.43"/>
<path d="M298.411 441.833C287.945 439.42 268.264 431.641 226.54 444.265C257.88 454.097 298.411 441.833 298.411 441.833Z" fill="#97ADFB"/>
<path d="M298.316 441.388C288.623 436.713 271.117 424.769 227.53 427.766C255.975 444.299 298.316 441.388 298.316 441.388Z" fill="#97ADFB"/>
<path d="M298.457 441.393C290.296 434.358 276.472 418.283 233.495 409.762C256.708 433.115 298.457 441.393 298.457 441.393Z" fill="#97ADFB"/>
<path d="M298.191 441.467C292.513 432.315 284.154 412.863 245.627 391.762C260.764 420.969 298.191 441.467 298.191 441.467Z" fill="#97ADFB"/>
<path d="M298.111 441.635C305.952 434.415 323.362 422.71 336.324 381.083C310.703 401.196 298.111 441.635 298.111 441.635Z" fill="#97ADFB"/>
<path d="M298.531 441.814C307.799 436.536 327.418 429.026 349.34 391.424C319.827 405.287 298.531 441.814 298.531 441.814Z" fill="#97ADFB"/>
<path d="M298.448 441.927C308.8 439.273 329.756 437.179 360.811 406.73C328.615 412.348 298.448 441.927 298.448 441.927Z" fill="#97ADFB"/>
<path d="M298.536 441.665C309.24 442.278 329.916 446.631 368.828 427.109C336.336 422.701 298.536 441.665 298.536 441.665Z" fill="#97ADFB"/>
<path d="M236.202 295.596C228.834 292.139 225.087 280.692 224.134 275.4C226.558 274.867 231.156 274.627 232.339 278.038C235.816 288.064 247.523 289.296 250.926 301.877C248.361 298.884 245.412 299.917 236.202 295.596Z" fill="#FF90B1"/>
<path d="M284.763 450.44C277.317 452.92 264.906 452.3 262.424 447.961C262.424 445.481 267.388 438.662 276.075 435.563C283.025 433.083 290.14 438.662 292.829 441.762C292.622 443.828 290.719 448.457 284.763 450.44Z" fill="#3C56C6"/>
<path d="M127.774 237.811C176.174 237.811 204.51 259.714 221.471 269.426C213.404 227.272 182.641 210.949 143.287 200.616C111.686 192.318 73.1691 230.372 62 227.272C66.3436 232.231 83.0504 237.811 127.774 237.811Z" fill="#FF90B1"/>
<path d="M226.688 194.417C203.729 225.412 215.932 252.275 216.759 272.526C229.997 254.755 233.475 231.896 261.436 210.535C282.534 194.417 304.045 184.085 317.282 169C307.975 178.299 246.65 167.466 226.688 194.417Z" fill="#FF90B1"/>
<path d="M184.24 319.639C184.24 292.859 208.647 275.005 220.85 269.426C216.921 279.964 214.462 304.939 212.163 319.639C209.061 339.476 216.921 363.033 220.85 375.431C208.647 367.992 184.24 346.419 184.24 319.639Z" fill="#FF90B1"/>
<path d="M221.113 272.5C277.03 322.713 292.83 396.508 292.83 443.621C300.276 449.82 321.993 450.44 329.44 443.621C329.44 390.309 281.718 304.675 227.113 265C222.769 265 221.113 271.26 221.113 272.5Z" fill="#3C56C6"/>
<path d="M421.467 455.45L432.872 426.264H438.649L426.479 457.408C426.076 458.44 425.081 459.119 423.973 459.119C422.079 459.119 420.778 457.214 421.467 455.45Z" fill="#6785EF"/>
<path d="M415.547 443.186L426.952 414H432.729L420.559 445.144C420.156 446.176 419.161 446.856 418.053 446.856C416.159 446.856 414.858 444.95 415.547 443.186Z" fill="#3A59C4"/>
<path d="M626.278 442.817L613.631 414H607.114L620.813 445.215C621.289 446.3 622.361 447 623.545 447C625.699 447 627.143 444.789 626.278 442.817Z" fill="#3A59C4"/>
<path d="M640.175 453.699L628.867 426.264H622.32L634.578 456.006C635.046 457.14 636.151 457.879 637.377 457.879C639.532 457.879 640.996 455.692 640.175 453.699Z" fill="#6785EF"/>
<path d="M433.684 421.305L365.374 374.801C364.349 374.103 362.961 374.297 362.167 375.25C361.255 376.343 361.485 377.985 362.662 378.786L432.443 426.264H637.634C639.003 426.264 640.113 425.154 640.113 423.784C640.113 422.415 639.003 421.305 637.634 421.305H433.684Z" fill="#5678F1"/>
<path d="M433.685 421.305L369.152 377.291C373.702 374.191 386.646 374.108 397.075 377.291C407.745 380.547 413.177 385.135 420.654 393.409C427.562 401.054 432.237 410.766 433.685 416.345C434.719 412.626 442.372 405.187 472.777 405.187H586.95C619.837 405.187 623.147 415.932 626.663 421.305H433.685Z" fill="#FFAFC7"/>
<path d="M269.242 232.679C240.295 244.845 225.166 261.974 221.22 269.017C233.217 271.017 265.034 273.068 296.33 265.268C327.626 257.469 356.121 261.367 364.808 282.444C370.393 235.951 305.425 217.471 269.242 232.679Z" fill="#FF90B1"/>
<path d="M160.661 260.127C192.928 257.152 215.059 265.087 222.092 269.426C212.163 276.865 203.476 279.345 160.661 306.001C133.926 322.646 122.81 333.277 129.015 352.494C93.6465 319.639 120.328 263.847 160.661 260.127Z" fill="#FF90B1"/>
<path d="M229.358 265.026C230.678 259.969 228.602 254.802 223.501 254.694C218.752 254.594 216.336 258.469 215.235 262.682C214.135 266.896 216.831 271.137 218.708 272.139C220.585 273.142 227.707 271.346 229.358 265.026Z" fill="#DFDDFE"/>
<path d="M210.234 277.806C205.705 272.543 204.764 265.064 210.191 261.805C215.242 258.772 220.225 261.944 223.999 266.329C227.773 270.715 227.477 277.461 226.072 279.817C224.668 282.173 215.895 284.384 210.234 277.806Z" fill="#8BA3F7"/>
<path d="M241.688 265.375C239.11 258.957 232.794 255.309 227.228 259.531C222.047 263.461 222.514 269.572 224.662 274.921C226.811 280.269 232.226 280.552 235.035 280.007C237.844 279.462 244.911 273.398 241.688 265.375Z" fill="#9CB0F4"/>
<path d="M290.968 444.861C290.761 440.109 292.457 430.107 300.896 428.124C311.445 425.644 321.994 432.463 323.235 438.662C323.53 440.137 324.071 441.225 324.716 442.095C323.834 440.271 333.532 439.055 338.747 438.662C345.986 439.902 358.852 442.878 352.398 444.861C346.211 446.946 335.387 449.374 329.313 447.227C329.481 447.779 329.537 448.421 329.44 449.201C325.303 451.68 315.416 455.896 308.963 452.92C302.344 453.127 288.734 452.672 287.245 449.201C285.756 445.729 289.107 444.861 290.968 444.861Z" fill="#3C56C6"/>
<circle cx="460.113" cy="341" r="35" fill="white" fill-opacity="0.18"/>
<path d="M454.782 338.856L460.366 350.634L466.571 351.874L460.366 340.096L454.782 338.856Z" fill="#001E87"/>
<path d="M460.367 350.015C460.863 351.998 463.883 353.734 465.331 354.354C465.951 354.354 467.441 354.106 468.433 353.114C469.674 351.874 465.951 345.675 464.09 342.576C462.228 339.476 459.746 338.856 460.367 340.716C460.987 342.576 459.746 347.535 460.367 350.015Z" fill="#FFD2E0"/>
<path d="M528.578 390.689C510.761 391.206 487.067 385.876 484.299 401.001C483.105 407.524 487.758 412 496.06 412C514.096 412 543.799 403.922 543.799 403.922C543.799 403.922 545.234 403.556 545.874 403.922C554.869 409.061 567.322 405.125 583.235 406.5C584.338 406.596 585.049 407.356 585.311 407.875C586.003 409.25 590.009 410.082 591.538 408.563C594.997 401.001 599.148 402.376 602.607 396.188C603.981 394.596 602.469 390.139 599.148 393.439C594.997 397.563 589.462 397.563 585.311 399.626C570.781 399.626 544.491 389.884 538.956 390.001C534.895 390.087 531.008 390.618 528.578 390.689Z" fill="#FFD2E0"/>
<path d="M541.113 405.5C539.252 403.64 534.613 393.96 534.613 389C528.113 390.5 494.867 393.037 493.875 394.028C492.634 395.268 492.89 414 496.613 414C499.592 414 513.113 412.006 541.113 405.5Z" fill="#6885EF"/>
<path d="M452.3 412.626C442.869 412.626 435.753 407.253 435.546 403.947C435.133 402.087 435.547 397.748 438.029 395.268C441.131 392.169 447.957 389.069 455.403 389.069C461.36 389.069 464.711 390.309 467.814 390.929C471.123 390.929 471.984 390.494 477.121 390.309C486.437 389.973 491.01 393.5 494.113 393.5C502.18 393.5 503.803 400.228 503.803 403.947C503.803 407.666 499.575 414 497.613 414C490.113 414 489.957 413.62 485.613 413C481.27 412.38 478.362 411.386 474.019 411.386C469.675 411.386 464.09 412.626 452.3 412.626Z" fill="url(#paint1_linear)"/>
<path d="M486.157 401.516C486.157 398.578 490.025 394.417 491.959 392.703C501.87 384.136 523.722 367 531.844 367C539.966 367 554.566 391.969 560.851 404.453C561.818 405.188 564.042 406.95 565.202 408.125C566.653 409.594 571.729 410.328 573.905 410.328C576.08 410.328 577.531 414 573.905 414H557.951C555.05 414 554.325 413.021 554.325 412.531C554.325 411.356 555.292 409.104 555.775 408.125C553.6 403.719 547.798 400.781 542.722 395.641C538.661 391.528 533.778 385.115 531.844 382.422C530.394 385.36 512.264 414 498.485 414C484.707 414 486.157 405.188 486.157 401.516Z" fill="#FFD2E0"/>
<path d="M478.363 386.705C476.377 390.134 460.233 403.632 452.95 407.504C447.653 410.32 443.352 408.971 441.189 404.729C436.416 395.367 449.226 390.282 451.947 390.126C456.35 383.657 464.136 380.62 468.778 378.281C466.859 373.42 465.238 360.302 464.933 355.026C465.28 353.165 466.567 350.236 468.934 353.414C471.893 357.387 479.807 376.265 481.366 379.627C482.613 382.318 479.884 385.467 478.363 386.705Z" fill="#FFD2E0"/>
<path d="M521.613 369L488.196 392C488.196 396.5 488.499 412.065 484.613 414.006C486.061 414.213 495.626 414.006 499.597 414.006C505.613 414.006 527.113 400.5 532.113 386C529.113 380.5 525.543 373.959 521.613 369Z" fill="#6885EF"/>
<path d="M416.154 401.351C408.962 400.52 406.208 392.592 407.64 385.406C408.611 380.533 415.582 378.11 418.191 377.899C420.8 377.688 424.382 381.39 426.884 379.857C429.385 378.323 429.332 377.662 431.556 380.809C433.781 383.956 438.293 382.925 439.052 384.194C439.812 385.463 438.722 388.213 438.883 390.196C439.085 392.69 442.573 395.22 442.573 395.22C442.573 395.22 437.6 404.05 436.801 405.002C428.357 400.759 424.811 402.35 416.154 401.351Z" fill="#FFD2E0"/>
<path d="M436.613 398C436.213 399.6 435.447 404 435.113 405.5C436.113 408.5 439.613 411 444.613 413C449.613 415 462.613 415 471.113 414.5C477.913 414.1 485.947 414.667 489.113 415C491.913 414.2 491.28 398 490.613 390.5C488.113 391 487.113 391 481.613 390.5C477.213 390.1 475.113 390.334 474.613 390.5C474.213 391.3 471.947 393.5 468.113 396.5C467.713 394.5 463.113 385.833 460.113 382.5C457.113 383.5 453.494 386.242 449.113 388.5C445.375 390.428 441.78 392.334 439.613 393.5C438.78 394.334 437.013 396.4 436.613 398Z" fill="white"/>
<path d="M407.141 398.881C409.892 402.06 420.508 402.249 425.472 401.946L425.779 400.518C423.99 399.068 424.798 397.142 418.59 392.205C413.646 389.097 415.549 380.048 415.102 376.908C412.821 373.405 409.824 373.378 406.595 373.295C403.762 373.221 399.046 377.307 400.347 377.017C401.648 376.727 403.178 379.68 402.741 383.553C402.305 387.426 403.703 394.908 407.141 398.881Z" fill="#4057A7"/>
<defs>
<linearGradient id="paint0_linear" x1="395.39" y1="148.757" x2="395.449" y2="334.006" gradientUnits="userSpaceOnUse">
<stop stop-color="#6885EF" stop-opacity="0.15"/>
<stop offset="1" stop-color="#FF90B1" stop-opacity="0.21"/>
</linearGradient>
<linearGradient id="paint1_linear" x1="489.531" y1="400.847" x2="437.408" y2="402.09" gradientUnits="userSpaceOnUse">
<stop stop-color="#D2A0C2"/>
<stop offset="1" stop-color="#DCBED2"/>
</linearGradient>
</defs>
</svg>
