<svg width="800" height="600" viewBox="0 0 800 600" fill="none" xmlns="http://www.w3.org/2000/svg">
<path d="M684.638 281.596C677.946 371.13 589.197 328.602 509.835 360.672C414.917 399.029 404.162 435.65 298.736 436.069C193.31 436.488 90.989 324.253 128.916 211.273C166.843 98.2921 318.768 63.7989 453.451 123.276C588.134 182.753 691.329 192.062 684.638 281.596Z" fill="url(#paint0_linear)" fill-opacity="0.1"/>
<ellipse cx="400.526" cy="508.2" rx="186.4" ry="34.154" fill="#F3F3F3"/>
<path d="M246.255 445.349C201.772 433.1 195.314 418.38 171.6 418.38C182 407.143 247.27 385.075 278.156 426.245C309.041 467.416 303.387 481.35 303.387 481.35C303.387 481.35 286.198 456.347 246.255 445.349Z" fill="#6386FF"/>
<path d="M232.941 419.878C153.634 367.2 164.633 274 164.633 274C181.999 343.466 278.769 343.073 303.412 401.775C328.054 460.476 303.412 502.339 303.412 502.339C303.412 502.339 312.248 472.556 232.941 419.878Z" fill="#9AB0FF"/>
<path d="M515.867 423.374C539.479 402.512 567.313 405.01 580.925 404.699C579.408 411.457 576.343 416.027 568.238 426.189C560.133 436.351 546.857 446.198 530.025 445.932C539.162 468.849 500.307 497.063 496.53 500.078C496.479 500.187 496.418 500.261 496.345 500.299C496.148 500.401 496.224 500.322 496.53 500.078C498.316 496.225 487.166 448.732 515.867 423.374Z" fill="#F9759C"/>
<path d="M321.153 346.009H482.096C482.096 346.009 476.494 372.507 476.494 410.884C476.494 443.149 486.781 482.28 490.057 493.925C490.686 496.162 490.592 498.556 488.978 500.227C483.704 505.688 465.756 516.939 407.688 516.063C353.526 515.247 327.876 506.195 317.523 500.986C313.713 499.069 312.364 494.74 313.398 490.602C316.646 477.604 323.206 447.148 323.899 410.884C324.824 362.476 321.153 346.009 321.153 346.009Z" fill="#3C56C6"/>
<path d="M321.32 345.552H482.263L477.784 375.705C477.784 375.705 451.215 384.775 399.982 384.386C348.748 383.996 323.039 375.705 323.039 375.705L321.32 345.552Z" fill="#FF90B1"/>
<path d="M549.741 317.509C549.741 343.352 482.886 360.625 401.68 360.625C320.475 360.625 255.669 343.352 255.669 317.509C255.669 291.666 320.475 265.689 401.68 265.689C482.886 265.689 549.741 291.666 549.741 317.509Z" fill="#6386FF"/>
<ellipse cx="402.131" cy="300.323" rx="89.4081" ry="21.9295" fill="url(#paint1_linear)"/>
<mask id="mask0" mask-type="alpha" maskUnits="userSpaceOnUse" x="213" y="108" width="366" height="215">
<path d="M315.434 307.148L213.99 248.719V108.233H578.93V248.719L489.092 305C482.071 310.871 454.876 322.614 402.263 322.614C349.65 322.614 322.455 312.303 315.434 307.148Z" fill="#C4C4C4"/>
</mask>
<g mask="url(#mask0)">
<rect width="85.2853" height="138.358" rx="10" transform="matrix(0.979376 -0.20224 0.159499 0.987163 306.515 189.994)" fill="#F9759C"/>
<rect width="6.01418" height="51.9842" transform="matrix(0.979376 -0.20224 0.159499 0.987163 382.337 255.108)" fill="#CACACA"/>
<rect width="6.01418" height="37.5885" transform="matrix(0.979376 -0.20224 0.159499 0.987163 374.325 271.447)" fill="#CACACA"/>
<rect width="18.0425" height="24.7924" rx="2" transform="matrix(0.979376 -0.20224 0.159499 0.987163 341.435 195.024)" fill="url(#paint2_linear)"/>
<rect width="96.838" height="159.189" rx="10" transform="matrix(0.998001 0.0633268 -0.0719218 0.997403 360.54 160.486)" fill="#FF9BB9"/>
<rect width="6.82885" height="59.8111" transform="matrix(0.998001 0.0633268 -0.0719218 0.997403 427.105 255.99)" fill="#CACACA"/>
<rect width="6.82885" height="43.248" transform="matrix(0.998001 0.0633268 -0.0719218 0.997403 413.987 271.754)" fill="#CACACA"/>
<rect opacity="0.7" width="20.4866" height="28.5253" rx="2" transform="matrix(0.998001 0.0633268 -0.0719218 0.997403 397.736 176.68)" fill="url(#paint3_linear)"/>
<rect width="98.0591" height="159.645" rx="10" transform="matrix(0.918943 0.394304 -0.35942 0.933208 435.697 154.883)" fill="#FFB8CD"/>
<rect width="3.69965" height="59.9821" rx="1.84983" transform="matrix(0.918943 0.394304 -0.35942 0.933208 474.993 259.9)" fill="#F8A6BF"/>
<rect width="4.23133" height="43.3717" rx="2.11566" transform="matrix(0.918943 0.394304 -0.35942 0.933208 457.658 270.524)" fill="#F8A6BF"/>
<rect width="20.7449" height="28.6069" rx="2" transform="matrix(0.918943 0.394304 -0.35942 0.933208 466.328 183.082)" fill="url(#paint4_linear)"/>
</g>
<path d="M317.038 306.967L216.306 248.591V108.233H578.685V248.591L489.477 304.821C482.506 310.687 455.501 322.419 403.257 322.419C351.013 322.419 324.009 312.117 317.038 306.967Z" fill="url(#paint5_linear)" fill-opacity="0.5"/>
<defs>
<linearGradient id="paint0_linear" x1="435.645" y1="94.9408" x2="369.593" y2="445.117" gradientUnits="userSpaceOnUse">
<stop stop-color="#EE729D"/>
<stop offset="1" stop-color="#4066EA" stop-opacity="0.91"/>
</linearGradient>
<linearGradient id="paint1_linear" x1="402.131" y1="278.393" x2="402.131" y2="322.252" gradientUnits="userSpaceOnUse">
<stop stop-color="#001E87"/>
<stop offset="1" stop-color="#001E87" stop-opacity="0"/>
</linearGradient>
<linearGradient id="paint2_linear" x1="9.02127" y1="0" x2="9.02127" y2="24.7924" gradientUnits="userSpaceOnUse">
<stop stop-color="white"/>
<stop offset="1" stop-color="white" stop-opacity="0.2"/>
</linearGradient>
<linearGradient id="paint3_linear" x1="10.2433" y1="0" x2="10.2433" y2="28.5253" gradientUnits="userSpaceOnUse">
<stop stop-color="white"/>
<stop offset="1" stop-color="white" stop-opacity="0.2"/>
</linearGradient>
<linearGradient id="paint4_linear" x1="10.3725" y1="0" x2="10.3725" y2="28.6069" gradientUnits="userSpaceOnUse">
<stop stop-color="white"/>
<stop offset="1" stop-color="white" stop-opacity="0.38"/>
</linearGradient>
<linearGradient id="paint5_linear" x1="397.495" y1="262.421" x2="397.495" y2="322.419" gradientUnits="userSpaceOnUse">
<stop stop-color="white" stop-opacity="0"/>
<stop offset="1" stop-color="white" stop-opacity="0.8"/>
</linearGradient>
</defs>
</svg>
