<svg width="800" height="600" viewBox="0 0 800 600" fill="none" xmlns="http://www.w3.org/2000/svg">
<path d="M389.503 366.341C316.616 371.141 114 449.527 114 308.351C114 29.4641 583.41 48.6911 583.41 244.362C583.41 331.947 474.474 360.747 389.503 366.341Z" fill="url(#paint0_linear)" fill-opacity="0.3"/>
<path d="M454.127 373.291C392.892 343.722 249.687 344.554 314.651 229.967C391.271 94.8195 716.822 230.879 626.782 389.697C586.479 460.786 525.514 407.762 454.127 373.291Z" fill="url(#paint1_linear)" fill-opacity="0.2"/>
<ellipse cx="372.271" cy="458.714" rx="150.538" ry="43.2857" fill="#F3F3F3"/>
<path d="M430.097 395.019C423.329 423.861 431.067 472.181 443.192 472.181C451.438 472.181 452.408 423.955 454.348 398.033C456.504 369.222 467.628 351.986 483.934 336.545C514.49 307.609 517.4 267.018 514.005 250.943C514.005 284.098 505.76 294.949 492.664 308.212C479.569 321.474 443.677 337.147 430.097 395.019Z" fill="#FF90B1"/>
<path d="M439.987 395.971C456.653 369.561 483.828 364.202 496.692 360.123C497.127 366.974 495.482 372.174 490.595 384.094C485.708 396.015 475.814 409.072 459.726 413.497C476.006 434.318 447.781 468.814 443.453 472.662C442.01 468.814 419.155 428.983 439.987 395.971Z" fill="#FFAFC7"/>
<path d="M342.856 413.267L347.613 427.161L343.648 427.933L338.891 414.811L321.447 411.723L338.098 412.495L333.34 399.373L316.689 391.654L332.548 396.285L326.997 373.9L336.512 394.742L347.613 381.619L337.305 397.829L342.063 410.952L356.335 400.917L342.856 413.267Z" fill="#FF90B1"/>
<ellipse rx="7.13631" ry="6.94708" transform="matrix(-1 0 0 1 357.921 401.689)" fill="#FFD1DF"/>
<ellipse rx="7.13631" ry="6.94708" transform="matrix(-1 0 0 1 348.405 380.076)" fill="#FFD1DF"/>
<ellipse rx="7.13631" ry="6.94708" transform="matrix(-1 0 0 1 326.204 372.357)" fill="#FFD1DF"/>
<ellipse rx="7.13631" ry="6.94708" transform="matrix(-1 0 0 1 313.517 392.426)" fill="#FFD1DF"/>
<ellipse rx="7.13631" ry="6.94708" transform="matrix(-1 0 0 1 318.274 412.495)" fill="#FFD1DF"/>
<path d="M344 452.605V327L381 346.286V477L347.05 457.829C345.166 456.765 344 454.769 344 452.605Z" fill="#9CB0F4"/>
<path d="M391 462.493C391 473.27 384.334 476.655 381 477V341.254L391 334V462.493Z" fill="#657FD8"/>
<path d="M358.399 283.31L305.303 321.114C304.085 321.981 304.279 323.847 305.65 324.444L390.908 361.608C394.228 363.055 398.079 362.515 400.873 360.21L451.517 318.428C452.648 317.496 452.591 315.39 452.11 313.467L367.51 281.717C364.48 280.521 361.052 281.421 358.399 283.31Z" fill="#8299E9"/>
<path d="M358.23 280.544L305.413 318.15C304.146 319.052 304.348 320.991 305.774 321.612L390.693 358.629C394.145 360.133 398.149 359.572 401.053 357.175L451.418 315.625C452.593 314.655 452.296 312.781 450.879 312.222L367.702 279.388C364.553 278.145 360.988 278.58 358.23 280.544Z" fill="#B9C9FF"/>
<path d="M359.177 286.307L317.736 315.635C316.467 316.533 316.662 318.471 318.084 319.097L390.181 350.891C393.648 352.42 397.681 351.858 400.598 349.439L439.93 316.826C441.098 315.857 440.804 313.992 439.395 313.429L368.663 285.183C365.515 283.925 361.944 284.349 359.177 286.307Z" fill="white"/>
<path d="M390.548 325.49L412.191 334.148L397.704 345.818C395.966 347.218 393.594 347.538 391.547 346.648L372.753 338.476L390.548 325.49Z" fill="#F5F5F5"/>
<path d="M365.538 315.39L387.662 324.529L369.386 337.514L347.743 328.376L365.538 315.39Z" fill="#F5F5F5"/>
<path d="M340.529 304.809L362.653 313.948L344.376 326.933L322.734 317.795L340.529 304.809Z" fill="#F5F5F5"/>
<path d="M374.196 312.024C378.524 310.741 388.624 308.85 394.396 311.543C401.61 314.91 400.167 318.276 404.977 320.2C409.786 322.124 420.367 322.605 425.657 318.757" stroke="#6885EF"/>
<path d="M372.753 314.429L414.115 331.262" stroke="black" stroke-opacity="0.2" stroke-width="0.5"/>
<ellipse cx="392.953" cy="337.033" rx="6.73333" ry="4.32857" fill="#3C56C6"/>
<ellipse cx="366.981" cy="325.49" rx="6.73333" ry="4.32857" fill="#3C56C6"/>
<ellipse cx="342.934" cy="314.909" rx="6.73333" ry="4.32857" fill="#3C56C6"/>
<circle cx="425.177" cy="318.757" r="1.44286" fill="#6785EF"/>
<circle cx="401.129" cy="317.795" r="1.44286" fill="#6785EF"/>
<circle cx="388.624" cy="310.1" r="1.44286" fill="#6785EF"/>
<circle cx="414.596" cy="321.643" r="1.44286" fill="#6785EF"/>
<circle cx="374.196" cy="312.024" r="1.44286" fill="#6785EF"/>
<ellipse cx="363.134" cy="299.519" rx="11.5429" ry="7.21429" fill="#FFAFC7"/>
<path d="M363.134 299.423V291.343C365.512 291.343 371.411 291.305 375.207 295.652C378.5 299.423 375.207 303.732 373.012 304.809L363.134 299.423Z" fill="#6785EF"/>
<ellipse cx="353.034" cy="337.995" rx="2.40476" ry="1.44286" fill="#EBEBEB"/>
<path d="M287.624 260.081C287.624 263.159 285.059 266.173 283.295 267.295C284.417 268.417 288.105 270.662 293.876 270.662C299.648 270.662 303.014 269.059 303.976 268.257C302.052 267.295 302.052 255.271 302.052 253.829C302.052 252.386 298.205 250.462 293.876 250.462C290.413 250.462 285.54 251.263 285.219 252.386C285.219 253.187 287.624 257.003 287.624 260.081Z" fill="#FFD2E0"/>
<path d="M288.586 256.714C285.7 253.668 281.312 246.622 279.928 240.362C277.634 229.98 283.101 215.833 295.319 215.833C305.9 215.833 310.737 227.308 310.228 237.476C309.748 247.095 307.343 257.676 301.09 256.714H288.586Z" fill="#FFD2E0"/>
<path d="M278.967 227.376C277.043 235.552 283.135 251.103 285.7 255.271C288.105 255.913 291.856 256.81 295.319 255.271C299.648 253.348 299.167 248.538 299.648 244.21C299.97 241.308 307.773 229.193 311.19 228.338C315.038 227.376 314 221.5 313.114 217.276C311.456 209.37 299.828 207.957 293.395 209.1C284.442 210.691 280.891 219.2 278.967 227.376Z" fill="#2F438C"/>
<path d="M268.386 342.805C269.54 340.496 268.867 335.43 268.386 333.186C269.829 331.743 273.003 328.953 274.157 329.338C275.311 329.723 275.6 337.194 275.6 340.881C274.798 343.125 272.714 347.71 270.791 348.095C268.867 348.48 268.386 344.729 268.386 342.805Z" fill="#FFD2E0"/>
<path d="M299.166 470.738C299.166 467.371 299.647 458.554 298.686 451.981H309.266C308.946 459.356 307.343 470.257 307.343 470.738C306.862 471.219 300.128 471.7 299.166 470.738Z" fill="#FFD2E0"/>
<path d="M265.019 451.019V436.59L274.157 437.552C273.356 442.843 271.271 450.538 271.271 451.019C271.271 452.406 266.622 451.5 265.019 451.019Z" fill="#FFD2E0"/>
<path d="M370.348 337.995C367.269 339.534 360.728 337.354 357.843 336.071L361.69 329.819C362.813 330.14 365.827 330.781 368.905 330.781C372.752 330.781 379.486 332.705 377.562 334.629C375.638 336.552 374.195 336.071 370.348 337.995Z" fill="#FFD2E0"/>
<path d="M297.805 290.258C294.466 285.127 296.236 273.751 303.495 270.662C315.919 265.374 325.372 293.956 335.441 307.555L361.703 329.822C360.828 333.963 359.412 335.236 357.958 335.912L327.109 319.066C314.805 311.385 301.766 296.342 297.805 290.258Z" fill="#D5DDFF"/>
<path d="M271.752 360.6C271.752 357.522 272.875 339.759 274.157 336.552C274.638 336.552 281.988 340.391 294.357 342.324C306.67 344.248 314.397 340.881 316.962 338.957L315.038 402.443C315.038 407.445 309.267 469 309.267 469C309.267 469 300.93 469.641 298.686 469C297.916 465.152 299.648 413.344 298.686 404.848C299.167 402.443 292.434 375.99 288.586 368.776C289.067 372.624 285.379 391.381 284.738 396.19L274.157 449C270.31 449 265.981 448.519 265.019 448.038C264.538 435.052 269.828 400.038 269.828 396.19C269.828 392.343 271.752 364.448 271.752 360.6Z" fill="#3C56C6"/>
<path d="M270.437 285.814C271.763 279.036 274.926 273.469 277.17 269.461C279.094 268.66 283.711 266.768 286.789 265.614C290.637 264.171 310.356 269.461 313.723 273.79C316.416 277.253 316.769 291.265 316.609 297.838C316.609 297.838 317.498 308.946 317.923 315.871C318.623 327.265 316.609 330.3 316.609 341.362C309.875 345.21 303.623 345.69 294.485 344.729C287.174 343.959 276.081 341.362 272.714 338.476C273.676 333.346 272.361 321.981 272.361 316.595C272.361 309.861 267.863 298.972 270.437 285.814Z" fill="#D5DDFF"/>
<path d="M297.723 476.029C297.339 474.49 298.204 471.54 299.166 470.257C300.128 470.738 304.938 470.738 307.342 470.257C307.823 471.219 311.19 472.662 320.329 474.105C321.824 474.341 322.252 478.113 321.771 478.433C319.847 478.433 309.267 480.838 301.09 478.433L301.058 478.424C299.681 478.019 298.105 477.556 297.723 476.029Z" fill="#001E87"/>
<path d="M263.576 456.309C263.191 454.77 264.056 450.378 265.018 449.095C265.018 449.095 266.461 449.576 268.385 449.576C270.309 449.576 271.27 449.095 271.27 449.095C271.27 449.095 277.043 452.943 282.333 452.943C284.334 452.943 282.814 456.47 282.333 456.79C280.024 457.56 272.968 458.338 266.555 458.658C265.112 458.338 263.96 457.849 263.576 456.309Z" fill="#001E87"/>
<path d="M252.995 307.214C254.15 301.828 272.233 269.219 278.967 268.738C280.57 276.273 281.275 292.209 280.89 293.748C280.409 295.671 265.981 307.214 265.019 307.214C264.057 307.214 275.119 329.338 274.157 330.781C273.388 331.935 269.828 333.186 268.386 333.667C262.775 327.414 251.841 312.601 252.995 307.214Z" fill="#D5DDFF"/>
<defs>
<linearGradient id="paint0_linear" x1="125.596" y1="124.843" x2="435.776" y2="393.032" gradientUnits="userSpaceOnUse">
<stop stop-color="#3C56C6"/>
<stop offset="0.0001" stop-color="#9EB3FF" stop-opacity="0.5"/>
<stop offset="1" stop-color="#9CB0F4" stop-opacity="0.1"/>
</linearGradient>
<linearGradient id="paint1_linear" x1="606.495" y1="411.1" x2="357.362" y2="245.652" gradientUnits="userSpaceOnUse">
<stop stop-color="#FF90B1"/>
<stop offset="0.668508" stop-color="#FF90B1" stop-opacity="0.2"/>
</linearGradient>
</defs>
</svg>
