<svg width="800" height="600" viewBox="0 0 800 600" fill="none" xmlns="http://www.w3.org/2000/svg">
<path d="M563.117 209.968C501.342 155.862 333.945 46.8377 247.022 126.968C202.708 167.82 180.327 211.316 204.668 296.299C235.093 402.528 428.285 455.897 563.118 417.279C713.721 374.144 611.422 252.276 563.117 209.968Z" fill="url(#paint0_linear)" fill-opacity="0.15"/>
<path d="M329.288 351.096C328.3 390.485 299.527 453.184 289.812 470.445L293 479C305.5 456.5 333.843 387.883 333.843 351.096C333.843 303.817 316.384 263.143 306.517 241.679L304.695 243.931C313.348 261.492 330.381 307.51 329.288 351.096Z" fill="#F9759C"/>
<path fill-rule="evenodd" clip-rule="evenodd" d="M247.422 117.213C255.881 130.554 271.079 159.283 276.511 173.954C270.633 161.599 256.212 133.124 245.555 118.07L245.702 117.841C238.978 121.216 234.542 135.069 238.48 165.182C245.987 164.947 253.826 165.537 258.697 167.299C254.293 166.886 246.517 166.592 238.758 167.233C239.6 173.249 240.766 179.889 242.301 187.196C242.799 189.567 243.384 191.882 244.047 194.14C250.473 191.693 257.185 189.902 261.923 189.879C257.935 190.932 251.231 193.093 244.626 196.036C247.647 205.548 252.07 214.033 257.322 221.531C263.594 218.081 270.37 215.231 275.267 214.568C271.363 216.165 264.792 219.28 258.499 223.176C275.942 247.055 301.679 260.558 316.081 265.094C316.361 263.243 316.68 261.375 317.005 259.472C318.975 247.944 321.163 235.142 316.081 217.365C315.512 215.376 314.889 213.371 314.216 211.355C309.709 213.512 305.38 217.081 303.321 219.087C304.976 215.867 309.544 212.141 313.683 209.787C308.392 194.48 300.317 178.618 291.668 164.451C287.761 166.61 284.186 169.59 282.371 171.358C283.782 168.611 287.313 165.498 290.889 163.181C289.344 160.678 287.783 158.231 286.218 155.853C281.958 158.029 277.952 161.346 275.996 163.253C277.517 160.291 281.504 156.902 285.354 154.546C272.37 135.032 259.294 120.39 253.231 117.854C251.246 117.023 249.273 116.775 247.422 117.213Z" fill="#F9759C"/>
<path fill-rule="evenodd" clip-rule="evenodd" d="M669.365 284.559C669.916 291.728 669.302 299.418 666.285 306.487C666.12 298.144 664.837 290.601 663.207 284.263C657.505 284.42 651.745 285.776 646.29 288.454C646.099 288.548 645.907 288.644 645.714 288.741C645.308 288.946 644.899 289.158 644.487 289.377C647.971 296.151 650.559 304.016 650.331 312.23C647.079 304.441 643.064 297.833 639.181 292.503C633.394 296.237 627.454 301.123 622.301 306.743C626.824 311.47 630.782 317.135 632.943 323.708C628.245 318.572 623.33 314.368 618.689 310.976C612.465 318.838 608.015 327.802 607.504 336.906C613.939 335.481 620.839 338.718 623.968 345.091C627.155 351.581 625.376 359.179 620.092 363.353C627.5 368.854 637.044 370.881 646.833 370.753C647.505 365.111 647.699 358.607 646.807 351.701C650.758 357.267 652.331 363.971 652.673 370.432C659.928 369.743 667.113 368.019 673.461 365.793C672.1 359.675 669.687 352.397 665.428 345.081C672.516 349.579 676.902 356.571 679.616 363.369C680.587 362.941 681.527 362.504 682.432 362.06C687.877 359.386 692.465 355.666 696.073 351.261C692.217 345.997 686.62 339.799 678.871 334.3C687.524 335.883 694.585 340.535 699.965 345.595C705.53 335.833 707.006 323.936 703.417 312.764C699.867 314.503 689.837 315.254 687.242 315.136C688.553 312.636 695.469 305.526 699.014 303.785C699.084 303.751 699.156 303.717 699.23 303.684C692.532 292.83 681.385 286.048 669.365 284.559Z" fill="#6386FF"/>
<path d="M551.588 391.588C569.16 361.124 608.929 347.279 625.519 341.361L626.621 343.605C609.889 348.479 571.229 365.791 555.579 396.313C542.063 422.674 546.122 449.098 551.23 463.936C551.734 465.4 551.099 467.026 549.709 467.709C548.135 468.482 546.235 467.745 545.673 466.083C540.437 450.596 535.181 420.033 551.588 391.588Z" fill="#6386FF"/>
<path d="M571 387C571.8 418.6 546 452.5 533 465.5C546 431.5 538.233 401.95 533 387C522.5 357 532 325 538.5 301C535.5 319.5 570 347.5 571 387Z" fill="#3E62DE"/>
<path d="M576.499 400.5C551.999 409.541 543.166 445.959 540.999 462.459C550.499 457.5 558.463 428.08 588.999 424.5C618.499 421.041 628.499 416.5 634.999 398.959C617.499 408.5 604.999 389.983 576.499 400.5Z" fill="#FFB8CD"/>
<path d="M231.317 453.713L242 470L243.935 468.34L233.645 452.361L238.853 442.468L232.773 451.043L227.93 443.44L230.468 432.091L226.664 441.813L217.407 430.117L224.335 443.165L213.327 443.435L225.602 444.792L230.444 452.395L219.777 455.472L231.317 453.713Z" fill="#F9759C"/>
<circle cx="219.276" cy="455.077" r="4.5" transform="rotate(-51.9329 219.276 455.077)" fill="#FFB8CD"/>
<circle cx="212.953" cy="442.721" r="4.5" transform="rotate(-51.9329 212.953 442.721)" fill="#FFB8CD"/>
<circle cx="217.649" cy="429.616" r="4.5" transform="rotate(-51.9329 217.649 429.616)" fill="#FFB8CD"/>
<circle cx="230.816" cy="431.333" r="4.5" transform="rotate(-51.9329 230.816 431.333)" fill="#FFB8CD"/>
<circle cx="240.202" cy="440.71" r="4.5" transform="rotate(-51.9329 240.202 440.71)" fill="#FFB8CD"/>
<path fill-rule="evenodd" clip-rule="evenodd" d="M553.941 486.051C542.247 489.395 526.711 491.434 509.662 491.434C492.392 491.434 476.674 489.342 464.929 485.92C452.446 492.229 427.067 496.678 397.333 497.148C391.425 505.139 372.077 511 349.12 511C323.457 511 302.302 503.676 299.394 494.238C285.168 496.092 267.536 497.189 248.441 497.189C201.253 497.189 163 490.49 163 482.226C163 473.963 201.253 467.264 248.441 467.264C274.3 467.264 297.475 469.276 313.143 472.454C321.51 463.543 353.691 456.906 392.113 456.906C414.25 456.906 434.316 459.109 448.949 462.682C458.924 455.231 482.352 450 509.662 450C538.189 450 562.479 455.707 571.627 463.69C582.431 462.307 595.126 461.509 608.708 461.509C648.082 461.509 680 468.208 680 476.472C680 484.735 648.082 491.434 608.708 491.434C586.699 491.434 567.019 489.341 553.941 486.051Z" fill="#F3F3F3"/>
<path d="M348.022 466.885L348.522 284.385H438.022V467.885C438.022 467.885 419.122 473.885 393.522 473.885C367.922 473.885 348.022 466.885 348.022 466.885Z" fill="url(#paint1_linear)"/>
<path d="M349.022 296.885C354.189 299.052 369.422 303.385 391.022 303.385C412.622 303.385 430.689 299.719 437.022 297.885" stroke="#425FC6" stroke-opacity="0.4" stroke-linecap="round" stroke-linejoin="round"/>
<path d="M349.022 305.385C354.189 307.552 369.422 311.885 391.022 311.885C412.622 311.885 430.689 308.219 437.022 306.385" stroke="#425FC6" stroke-opacity="0.4" stroke-linecap="round" stroke-linejoin="round"/>
<path d="M349.022 313.885C354.189 316.052 369.422 320.385 391.022 320.385C412.622 320.385 430.689 316.719 437.022 314.885" stroke="#425FC6" stroke-opacity="0.4" stroke-linecap="round" stroke-linejoin="round"/>
<path d="M349.022 322.385C354.189 324.552 369.422 328.885 391.022 328.885C412.622 328.885 430.689 325.219 437.022 323.385" stroke="#425FC6" stroke-opacity="0.4" stroke-linecap="round" stroke-linejoin="round"/>
<path d="M349.022 330.885C354.189 333.052 369.422 337.385 391.022 337.385C412.622 337.385 430.689 333.719 437.022 331.885" stroke="#425FC6" stroke-opacity="0.4" stroke-linecap="round" stroke-linejoin="round"/>
<path d="M349.022 339.385C354.189 341.552 369.422 345.885 391.022 345.885C412.622 345.885 430.689 342.219 437.022 340.385" stroke="#425FC6" stroke-opacity="0.4" stroke-linecap="round" stroke-linejoin="round"/>
<path d="M349.022 347.885C354.189 350.052 369.422 354.385 391.022 354.385C412.622 354.385 430.689 350.719 437.022 348.885" stroke="#425FC6" stroke-opacity="0.4" stroke-linecap="round" stroke-linejoin="round"/>
<path d="M349.022 356.385C354.189 358.552 369.422 362.885 391.022 362.885C412.622 362.885 430.689 359.219 437.022 357.385" stroke="#425FC6" stroke-opacity="0.4" stroke-linecap="round" stroke-linejoin="round"/>
<path d="M349.022 364.885C354.189 367.052 369.422 371.385 391.022 371.385C412.622 371.385 430.689 367.719 437.022 365.885" stroke="#425FC6" stroke-opacity="0.4" stroke-linecap="round" stroke-linejoin="round"/>
<path d="M349.022 373.385C354.189 375.552 369.422 379.885 391.022 379.885C412.622 379.885 430.689 376.219 437.022 374.385" stroke="#425FC6" stroke-opacity="0.4" stroke-linecap="round" stroke-linejoin="round"/>
<path d="M349.022 381.885C354.189 384.052 369.422 388.385 391.022 388.385C412.622 388.385 430.689 384.719 437.022 382.885" stroke="#425FC6" stroke-opacity="0.4" stroke-linecap="round" stroke-linejoin="round"/>
<path d="M349.022 390.385C354.189 392.552 369.422 396.885 391.022 396.885C412.622 396.885 430.689 393.219 437.022 391.385" stroke="#425FC6" stroke-opacity="0.4" stroke-linecap="round" stroke-linejoin="round"/>
<path d="M349.022 398.885C354.189 401.052 369.422 405.385 391.022 405.385C412.622 405.385 430.689 401.719 437.022 399.885" stroke="#425FC6" stroke-opacity="0.4" stroke-linecap="round" stroke-linejoin="round"/>
<path d="M349.022 407.385C354.189 409.552 369.422 413.885 391.022 413.885C412.622 413.885 430.689 410.219 437.022 408.385" stroke="#425FC6" stroke-opacity="0.4" stroke-linecap="round" stroke-linejoin="round"/>
<path d="M349.022 415.885C354.189 418.052 369.422 422.385 391.022 422.385C412.622 422.385 430.689 418.719 437.022 416.885" stroke="#425FC6" stroke-opacity="0.4" stroke-linecap="round" stroke-linejoin="round"/>
<path d="M349.022 424.385C354.189 426.552 369.422 430.885 391.022 430.885C412.622 430.885 430.689 427.219 437.022 425.385" stroke="#425FC6" stroke-opacity="0.4" stroke-linecap="round" stroke-linejoin="round"/>
<path d="M349.022 432.885C354.189 435.052 369.422 439.385 391.022 439.385C412.622 439.385 430.689 435.719 437.022 433.885" stroke="#425FC6" stroke-opacity="0.4" stroke-linecap="round" stroke-linejoin="round"/>
<path d="M349.022 441.385C354.189 443.552 369.422 447.885 391.022 447.885C412.622 447.885 430.689 444.219 437.022 442.385" stroke="#425FC6" stroke-opacity="0.4" stroke-linecap="round" stroke-linejoin="round"/>
<path d="M349.022 449.885C354.189 452.052 369.422 456.385 391.022 456.385C412.622 456.385 430.689 452.719 437.022 450.885" stroke="#425FC6" stroke-opacity="0.4" stroke-linecap="round" stroke-linejoin="round"/>
<path d="M349.022 458.385C354.189 460.552 369.422 464.885 391.022 464.885C412.622 464.885 430.689 461.219 437.022 459.385" stroke="#425FC6" stroke-opacity="0.4" stroke-linecap="round" stroke-linejoin="round"/>
<ellipse cx="393.022" cy="284.385" rx="44.5" ry="10" fill="#6885EF"/>
<path d="M235.522 477.385V388.385H325.022L325.522 478.385C325.522 478.385 306.622 484.385 281.022 484.385C255.422 484.385 235.522 477.385 235.522 477.385Z" fill="url(#paint2_linear)"/>
<g opacity="0.5">
<path d="M236.022 400.885C241.189 403.052 256.422 407.385 278.022 407.385C299.622 407.385 317.689 403.719 324.022 401.885" stroke="#425FC6" stroke-opacity="0.7" stroke-linecap="round" stroke-linejoin="round"/>
<path d="M236.022 409.385C241.189 411.552 256.422 415.885 278.022 415.885C299.622 415.885 317.689 412.219 324.022 410.385" stroke="#425FC6" stroke-opacity="0.7" stroke-linecap="round" stroke-linejoin="round"/>
<path d="M236.022 417.885C241.189 420.052 256.422 424.385 278.022 424.385C299.622 424.385 317.689 420.719 324.022 418.885" stroke="#425FC6" stroke-opacity="0.7" stroke-linecap="round" stroke-linejoin="round"/>
<path d="M236.022 426.385C241.189 428.552 256.422 432.885 278.022 432.885C299.622 432.885 317.689 429.219 324.022 427.385" stroke="#425FC6" stroke-opacity="0.7" stroke-linecap="round" stroke-linejoin="round"/>
<path d="M236.022 434.885C241.189 437.052 256.422 441.385 278.022 441.385C299.622 441.385 317.689 437.719 324.022 435.885" stroke="#425FC6" stroke-opacity="0.7" stroke-linecap="round" stroke-linejoin="round"/>
<path d="M236.022 443.385C241.189 445.552 256.422 449.885 278.022 449.885C299.622 449.885 317.689 446.219 324.022 444.385" stroke="#425FC6" stroke-opacity="0.7" stroke-linecap="round" stroke-linejoin="round"/>
<path d="M236.022 451.885C241.189 454.052 256.422 458.385 278.022 458.385C299.622 458.385 317.689 454.719 324.022 452.885" stroke="#425FC6" stroke-opacity="0.7" stroke-linecap="round" stroke-linejoin="round"/>
<path d="M236.022 460.385C241.189 462.552 256.422 466.885 278.022 466.885C299.622 466.885 317.689 463.219 324.022 461.385" stroke="#425FC6" stroke-opacity="0.7" stroke-linecap="round" stroke-linejoin="round"/>
<path d="M236.022 468.885C241.189 471.052 256.422 475.385 278.022 475.385C299.622 475.385 317.689 471.719 324.022 469.885" stroke="#425FC6" stroke-opacity="0.7" stroke-linecap="round" stroke-linejoin="round"/>
</g>
<ellipse cx="280.022" cy="388.385" rx="44.5" ry="10" fill="#6386FF"/>
<path d="M457.522 460.198V340.385H547.022L547.522 461.51C547.522 461.51 528.622 469.385 503.022 469.385C477.422 469.385 457.522 460.198 457.522 460.198Z" fill="url(#paint3_linear)"/>
<g opacity="0.5">
<path d="M459.022 385.885C464.189 388.052 479.422 392.385 501.022 392.385C522.622 392.385 540.689 388.719 547.022 386.885" stroke="#425FC6" stroke-opacity="0.7" stroke-linecap="round" stroke-linejoin="round"/>
<path d="M458.522 377.385C463.689 379.552 478.922 383.885 500.522 383.885C522.122 383.885 540.189 380.219 546.522 378.385" stroke="#425FC6" stroke-opacity="0.7" stroke-linecap="round" stroke-linejoin="round"/>
<path d="M458.522 377.385C463.689 379.552 478.922 383.885 500.522 383.885C522.122 383.885 540.189 380.219 546.522 378.385" stroke="#425FC6" stroke-opacity="0.7" stroke-linecap="round" stroke-linejoin="round"/>
<path d="M458.522 368.385C463.689 370.552 478.922 374.885 500.522 374.885C522.122 374.885 540.189 371.219 546.522 369.385" stroke="#425FC6" stroke-opacity="0.7" stroke-linecap="round" stroke-linejoin="round"/>
<path d="M458.522 360.385C463.689 362.552 478.922 366.885 500.522 366.885C522.122 366.885 540.189 363.219 546.522 361.385" stroke="#425FC6" stroke-opacity="0.7" stroke-linecap="round" stroke-linejoin="round"/>
<path d="M458.522 352.385C463.689 354.552 478.922 358.885 500.522 358.885C522.122 358.885 540.189 355.219 546.522 353.385" stroke="#425FC6" stroke-opacity="0.7" stroke-linecap="round" stroke-linejoin="round"/>
<path d="M459.022 394.385C464.189 396.552 479.422 400.885 501.022 400.885C522.622 400.885 540.689 397.219 547.022 395.385" stroke="#425FC6" stroke-opacity="0.7" stroke-linecap="round" stroke-linejoin="round"/>
<path d="M459.022 402.885C464.189 405.052 479.422 409.385 501.022 409.385C522.622 409.385 540.689 405.719 547.022 403.885" stroke="#425FC6" stroke-opacity="0.7" stroke-linecap="round" stroke-linejoin="round"/>
<path d="M459.022 411.385C464.189 413.552 479.422 417.885 501.022 417.885C522.622 417.885 540.689 414.219 547.022 412.385" stroke="#425FC6" stroke-opacity="0.7" stroke-linecap="round" stroke-linejoin="round"/>
<path d="M459.022 419.885C464.189 422.052 479.422 426.385 501.022 426.385C522.622 426.385 540.689 422.719 547.022 420.885" stroke="#425FC6" stroke-opacity="0.7" stroke-linecap="round" stroke-linejoin="round"/>
<path d="M459.022 428.385C464.189 430.552 479.422 434.885 501.022 434.885C522.622 434.885 540.689 431.219 547.022 429.385" stroke="#425FC6" stroke-opacity="0.7" stroke-linecap="round" stroke-linejoin="round"/>
<path d="M459.022 436.885C464.189 439.052 479.422 443.385 501.022 443.385C522.622 443.385 540.689 439.719 547.022 437.885" stroke="#425FC6" stroke-opacity="0.7" stroke-linecap="round" stroke-linejoin="round"/>
<path d="M459.022 445.385C464.189 447.552 479.422 451.885 501.022 451.885C522.622 451.885 540.689 448.219 547.022 446.385" stroke="#425FC6" stroke-opacity="0.7" stroke-linecap="round" stroke-linejoin="round"/>
<path d="M459.022 453.885C464.189 456.052 479.422 460.385 501.022 460.385C522.622 460.385 540.689 456.719 547.022 454.885" stroke="#425FC6" stroke-opacity="0.7" stroke-linecap="round" stroke-linejoin="round"/>
</g>
<ellipse cx="502.022" cy="340.385" rx="44.5" ry="10" fill="#6785EF"/>
<path d="M533.522 470.885V461.385H622.522V471.885C622.522 471.885 614.022 480.01 577.522 479.885C541.521 479.762 533.522 470.885 533.522 470.885Z" fill="url(#paint4_linear)"/>
<ellipse cx="578.022" cy="461.385" rx="44.5" ry="10" fill="#6386FF"/>
<path d="M462.522 339.885V330.385H551.522V340.885C551.522 340.885 543.022 349.01 506.522 348.885C470.521 348.762 462.522 339.885 462.522 339.885Z" fill="url(#paint5_linear)"/>
<ellipse cx="507.022" cy="330.385" rx="44.5" ry="10" fill="#6386FF"/>
<path d="M228.522 389.885V380.385H317.522V390.885C317.522 390.885 309.022 399.01 272.522 398.885C236.521 398.762 228.522 389.885 228.522 389.885Z" fill="url(#paint6_linear)"/>
<ellipse cx="273.022" cy="380.385" rx="44.5" ry="10" fill="#6386FF"/>
<ellipse cx="341.46" cy="449.415" rx="38.9679" ry="42.5" transform="rotate(20.2257 341.46 449.415)" fill="#6386FF"/>
<ellipse cx="337.781" cy="445.737" rx="38.9679" ry="42.5" transform="rotate(20.2257 337.781 445.737)" fill="#87A1FE"/>
<path d="M389.522 345.885V335.385L396.522 336.385L394.5 346L389.522 345.885Z" fill="#F6D8E1"/>
<path d="M428.522 334.385C428.522 334.385 428.522 326.885 429.022 322.385C431.222 321.488 435.022 323.385 435.022 323.385L432.522 334.885L428.522 334.385Z" fill="#F6D8E1"/>
<path d="M432.5 334.5C431.938 334.993 430.079 334.411 428.438 334C428.438 335.439 426.752 337.722 427.032 340.165C430.548 345.097 442.517 348.18 443.923 346.33C445.33 344.481 441.354 341.875 439 340.165C435.699 337.767 433.204 333.884 432.5 334.5Z" fill="#C4D1FF"/>
<path d="M394.458 345C392.821 346.101 390.637 345.459 389.5 345C389.5 346.835 389 351.47 389 355.324C389 360.142 393.5 364.959 397.187 364.959C401.5 364.959 401.537 357.3 400.5 356C399.423 354.65 396.278 348.671 394.458 345Z" fill="#C4D1FF"/>
<path d="M377.023 275.885C375.023 271.885 375.356 263.885 377.023 259.885L408.522 261.385C422.522 268.385 442.922 284.885 444.522 288.885C446.122 292.885 435.189 315.885 434.522 327.385C433.022 328.885 428.522 327.385 428.522 325.385C428.522 323.385 430.522 300.385 433.022 295.385C434.561 292.308 412.856 285.146 406.022 280.885C409.961 286.092 409.522 295.931 409.522 296.885C409.522 298.385 398.022 335.885 396.022 336.885C394.022 337.885 391.022 336.885 389.522 336.885C388.022 336.885 392.522 298.885 392.022 296.885C391.522 294.885 379.523 280.885 377.023 275.885Z" fill="#2C50CD"/>
<path d="M386.022 210.885C389.222 212.085 394.022 209.719 396.022 208.385C399.522 208.385 406.822 208.885 408.022 210.885C408.1 211.015 408.17 211.182 408.232 211.385C412.951 222.633 421.628 241.915 422.022 243.885C422.422 245.885 422.356 258.552 423.022 265.885L417.522 266.385C416.189 259.552 415.022 248.985 415.022 247.385C415.022 245.785 410.356 240.552 408.022 235.385C408.022 241.385 405.522 247.385 408.022 256.385C410.522 265.385 410.022 260.885 410.522 262.385C408.69 263.759 407.564 270.78 403.522 271.385C403.315 271.416 401.555 269.679 399.993 268.15L397.522 265.885C397.245 265.925 391.909 275.849 391.522 275.885C387.027 276.307 378.799 266.437 376.522 261.885C375.522 259.885 378.523 249.885 378.523 243.885C378.523 235.885 377.022 236.385 376.522 232.385C373.356 237.052 368.022 243.885 368.022 243.885C368.022 243.885 363.022 264.052 360.522 274.385L354.022 273.385C355.522 265.219 358.922 247.285 360.522 240.885C362.311 233.732 374.074 216.984 376.561 213.502C376.709 213.223 376.86 213.022 377.022 212.86C377.417 212.468 377.877 212.315 378.523 211.885C379.723 211.085 384.022 210.885 386.022 210.885Z" fill="#6386FF"/>
<path d="M362.522 242.885C363.322 241.285 362.856 237.552 362.522 235.885L360.522 240.385L359.522 245.385C360.189 245.219 361.722 244.485 362.522 242.885Z" fill="#DFDDFE" fill-opacity="0.5"/>
<path d="M349.022 281.385C348.622 279.385 352.189 275.219 354.022 273.385C356.022 273.385 360.022 273.585 360.022 274.385V280.385C359.189 280.719 357.422 281.385 357.022 281.385C356.522 281.385 354.022 288.885 351.022 288.385C348.022 287.885 349.522 283.885 349.022 281.385Z" fill="#F6D8E1"/>
<path d="M425.5 271.775C425.79 270.178 423.203 266.85 421.874 265.385C420.423 265.385 417.522 265.545 417.522 266.184V270.976C418.127 271.243 419.408 271.775 419.698 271.775C420.061 271.775 421.874 277.766 424.05 277.366C426.225 276.967 425.137 273.772 425.5 271.775Z" fill="#F6D8E1"/>
<path d="M376.355 200.34C376.355 199.54 375.855 195.174 375.855 192.84C374.855 188.34 375.855 180.34 382.355 177.84C388.855 175.34 392.855 183.84 394.355 186.34C395.855 188.84 396.355 198.84 395.355 201.84C395.689 204.674 395.855 206.34 396.355 208.34C396.355 210.511 394.61 212.449 392.522 213.257C392.035 213.445 391.529 215.831 391.022 215.885C389.2 216.079 387.368 213.068 386.355 210.84C386.355 208.34 386.583 206.216 386.583 206.216C386.583 206.216 387.377 206.055 388.501 205.722C386.509 206.278 384.658 206.64 383.855 206.84C382.255 207.24 379.855 203.007 378.855 200.84C377.855 201.174 376.355 201.14 376.355 200.34Z" fill="#F6D8E1"/>
<path d="M386.022 207.885L384.522 211.885C385.322 214.285 389.189 215.552 390.522 215.885L389.522 211.885C387.922 211.485 386.356 208.885 386.022 207.885Z" fill="#6386FF"/>
<path d="M396.522 206.885L398.522 211.119C397.562 213.679 392.622 215.53 391.022 215.885L392.522 211.119C394.442 210.692 396.122 207.952 396.522 206.885Z" fill="#6386FF"/>
<path d="M388.023 176.385C383.023 172.885 373.302 180.206 372.523 184.885C371.878 188.753 378.9 188.885 381.523 188.885C386.73 188.885 391.868 196.245 396 199C396.416 199.277 396.523 196.385 395.523 187.885C395.347 186.396 393.023 179.885 388.023 176.385Z" fill="#F9759C"/>
<path d="M404.011 197.08C401.945 197.936 357.011 176.08 367.91 176.891C371.899 177.188 374.52 178.332 378.011 178.58C380.195 176.062 386.777 167.659 388.317 168.57C390.241 169.71 399.585 175.012 400.511 176.08C401.438 177.149 397.082 188.083 397.011 189.08C396.94 190.078 406.077 196.225 404.011 197.08Z" fill="#A6B7F3"/>
<defs>
<linearGradient id="paint0_linear" x1="361.481" y1="115.383" x2="431" y2="368.5" gradientUnits="userSpaceOnUse">
<stop stop-color="#6386FF"/>
<stop offset="1" stop-color="#6785EF" stop-opacity="0"/>
</linearGradient>
<linearGradient id="paint1_linear" x1="346.522" y1="369.885" x2="438.522" y2="370.385" gradientUnits="userSpaceOnUse">
<stop stop-color="#6386FF"/>
<stop offset="0.519337" stop-color="#95ADFF"/>
<stop offset="1" stop-color="#6386FF"/>
</linearGradient>
<linearGradient id="paint2_linear" x1="233.522" y1="473.885" x2="325.522" y2="474.385" gradientUnits="userSpaceOnUse">
<stop stop-color="#6386FF"/>
<stop offset="0.519337" stop-color="#96ADFF"/>
<stop offset="1" stop-color="#6386FF"/>
</linearGradient>
<linearGradient id="paint3_linear" x1="455.522" y1="455.604" x2="547.524" y2="455.985" gradientUnits="userSpaceOnUse">
<stop stop-color="#698BFF"/>
<stop offset="0.519337" stop-color="#94ABFF"/>
<stop offset="1" stop-color="#6A8CFF"/>
</linearGradient>
<linearGradient id="paint4_linear" x1="531.522" y1="575.604" x2="623.524" y2="575.985" gradientUnits="userSpaceOnUse">
<stop stop-color="#425FC6"/>
<stop offset="0.519337" stop-color="#6885EF"/>
<stop offset="1" stop-color="#425FC6"/>
</linearGradient>
<linearGradient id="paint5_linear" x1="460.522" y1="444.604" x2="552.524" y2="444.985" gradientUnits="userSpaceOnUse">
<stop stop-color="#678AFF"/>
<stop offset="0.519337" stop-color="#95ADFF"/>
<stop offset="1" stop-color="#6C8DFF"/>
</linearGradient>
<linearGradient id="paint6_linear" x1="226.522" y1="494.604" x2="318.524" y2="494.985" gradientUnits="userSpaceOnUse">
<stop stop-color="#688AFF"/>
<stop offset="0.519337" stop-color="#96ADFF"/>
<stop offset="1" stop-color="#6B8CFF"/>
</linearGradient>
</defs>
</svg>
