<svg width="800" height="600" viewBox="0 0 800 600" fill="none" xmlns="http://www.w3.org/2000/svg">
<path d="M449.649 370.785C340.717 370.784 263.748 481.595 212.941 401.766C84.7978 200.426 580.984 1.60107 606.862 256.287C618.134 367.225 558.582 370.785 449.649 370.785Z" fill="url(#paint0_linear)" fill-opacity="0.3"/>
<path d="M384.845 485.511L550.653 375.062C553.993 372.837 556 369.089 556 365.075V356L436.347 332.268L243.5 440V447.867C243.5 453.024 246.796 457.605 251.686 459.244L345.594 490.726C358.78 495.147 373.27 493.222 384.845 485.511Z" fill="#96ADFF"/>
<path d="M420.077 330.845L248.049 432.705C241.452 436.611 242.447 446.449 249.692 448.955L345.638 482.143C358.923 486.738 373.591 484.862 385.291 477.071L552.312 365.85C558.823 361.514 557.084 351.508 549.491 349.624L453.841 325.891C442.372 323.045 430.245 324.825 420.077 330.845Z" fill="#9CB0F4"/>
<path d="M421.408 335.537L252.424 435.523C248.743 437.701 249.318 443.196 253.371 444.564L345.769 475.747C358.983 480.206 373.518 478.287 385.122 470.55L546.693 362.823C550.3 360.419 549.347 354.877 545.144 353.815L507.711 344.358L499.727 347.987C497.648 348.932 495.307 349.137 493.095 348.568L471.957 343.124C470.343 342.708 469.377 341.057 469.806 339.447L471.073 334.686L455.546 330.687C443.974 327.707 431.692 329.451 421.408 335.537Z" fill="#E0E7FF"/>
<path d="M406.855 121.718L480.177 249.46C483.025 254.42 489.445 255.987 494.257 252.894L556.607 212.822C561.173 209.887 562.564 203.847 559.743 199.21L484.901 76.2331C482.072 71.5844 476.045 70.0511 471.339 72.7828L410.508 108.091C405.748 110.854 404.115 116.944 406.855 121.718Z" fill="#F9759C"/>
<path d="M407.257 120.268L480.58 248.01C483.427 252.971 489.847 254.537 494.659 251.445L557.009 211.372C561.575 208.438 562.966 202.397 560.145 197.761L485.304 74.7837C482.474 70.135 476.448 68.6017 471.741 71.3334L410.91 106.641C406.15 109.404 404.517 115.495 407.257 120.268Z" fill="#FF90B1"/>
<path d="M452.357 95.6047L439.465 103.576C438.545 104.144 438.244 105.342 438.786 106.278L450.132 125.903C450.695 126.877 451.952 127.195 452.911 126.605L466.253 118.399C467.191 117.823 467.486 116.597 466.914 115.656L455.118 96.2664C454.541 95.3179 453.302 95.0209 452.357 95.6047Z" fill="url(#paint1_linear)"/>
<rect width="65.3956" height="5.58477" rx="2.79239" transform="matrix(-0.505727 -0.862716 0.871765 -0.489884 526.389 213.775)" fill="#9F385C" fill-opacity="0.2"/>
<rect width="92.4953" height="5.58477" rx="2.79239" transform="matrix(-0.505727 -0.862716 0.871765 -0.489884 536.889 208.139)" fill="#9F385C" fill-opacity="0.2"/>
<path d="M199.817 284.308L305.266 229.952C308.88 228.089 313.262 228.6 316.351 231.244L365.93 273.684C369.118 276.412 368.592 281.486 364.913 283.503L261.86 339.999C258.141 342.038 253.542 341.509 250.382 338.681L198.773 292.478C196.162 290.141 196.703 285.914 199.817 284.308Z" fill="#728DEC"/>
<path d="M200.442 283.084L305.881 228.462C309.124 226.782 313.061 227.229 315.846 229.593L365.422 271.693C368.617 274.406 368.117 279.476 364.452 281.512L262.452 338.172C258.744 340.231 254.14 339.728 250.965 336.915L199.427 291.267C196.799 288.939 197.325 284.699 200.442 283.084Z" fill="#96ADFF"/>
<path d="M320.498 248.96L331.359 258.391C331.883 258.847 331.795 259.686 331.187 260.022L313.979 269.527C313.612 269.73 313.158 269.683 312.841 269.409L301.6 259.689C301.066 259.228 301.165 258.374 301.79 258.047L319.378 248.83C319.742 248.639 320.187 248.691 320.498 248.96Z" fill="url(#paint2_linear)"/>
<rect width="50.363" height="4.72318" rx="2.36159" transform="matrix(-0.87163 0.490124 0.762637 0.646854 289.484 288.216)" fill="#6885EF" fill-opacity="0.5"/>
<rect width="71.2332" height="4.72318" rx="2.36159" transform="matrix(-0.87163 0.490124 0.762637 0.646854 313.174 285.843)" fill="#6885EF" fill-opacity="0.5"/>
<path d="M397.928 315.53C395.313 304.025 396.558 293.305 402.667 285.995C407.147 280.634 410.013 279.445 418.859 278.39C431.674 276.863 441.14 293.246 440.465 314.18C439.79 335.113 451.715 350.819 468.148 357.397C476.001 360.541 480.301 358.925 483.69 355.548C481.89 359.15 475.048 366.217 462.084 365.677C449.12 365.137 439.578 348.345 436.427 340.017C433.951 344.294 429 354.063 429 358.925C429 365.002 418.872 371.755 405.368 376.482C394.565 380.263 389.163 392.463 387.813 398.09C386.237 395.164 384.031 386.746 387.813 376.482C391.161 367.393 397.393 359.613 401.745 356.856C394.993 360.381 393.086 362.31 382.398 364.825C373.215 366.986 369.357 373.105 368.232 376.482C368.007 371.98 373.475 360.372 383.749 352.67C402.667 338.49 401.304 330.386 397.928 315.53Z" fill="#F9759C"/>
<path fill-rule="evenodd" clip-rule="evenodd" d="M428.986 330.642C431.6 336.309 439.536 351.485 444.668 357.99C444.774 358.227 444.899 358.515 445.045 358.85C446.793 362.863 451.545 373.769 461.776 388.487C461.837 392.793 463.934 394.967 465.339 396.424C466.479 397.606 469.14 397.409 470.328 396.424C471.468 396.424 472.753 396.499 474.091 396.578C476.937 396.745 480.022 396.926 482.446 396.424C486.01 395.684 483.872 393.467 481.734 391.25C480.792 390.274 478.297 389.365 475.412 388.314C473.053 387.454 470.434 386.5 468.19 385.337C468.071 385.275 467.951 385.223 467.83 385.179C466.485 380.715 461.666 369.341 458.419 361.676C456.801 357.855 455.572 354.956 455.36 354.294C453.459 348.874 447.519 334.338 444.668 328.425C441.817 322.512 433.025 327.439 428.986 330.642Z" fill="#FFD2E0"/>
<path fill-rule="evenodd" clip-rule="evenodd" d="M406.705 356.722C404.23 361.899 396.713 375.765 391.851 381.707C391.751 381.924 391.632 382.187 391.494 382.493C389.813 386.215 385.199 396.428 375.199 410.187C374.474 411.559 374.06 412.803 373.705 413.868C373.283 415.133 372.946 416.146 372.271 416.821C371.19 417.902 367.994 417.722 366.868 416.821C365.595 416.821 363.937 417.013 362.185 417.216C359.292 417.552 356.143 417.917 354.04 417.496C350.664 416.821 354.04 413.444 354.715 412.77C355.344 412.142 356.702 411.797 358.524 411.336C361.402 410.608 365.435 409.586 369.57 406.692C369.688 406.609 369.808 406.54 369.931 406.482C371.233 402.36 375.766 392.041 378.825 385.075C380.358 381.584 381.522 378.935 381.723 378.331C383.524 373.379 389.15 360.098 391.851 354.696C394.552 349.294 402.879 353.796 406.705 356.722Z" fill="#FFD2E0"/>
<path d="M435.063 324.984C431.282 324.444 416.158 327.01 406.03 335.789C401.303 348.619 414.132 355.371 414.807 362.124C415.483 368.877 416.027 371.807 414.807 377.809C413.687 383.321 411.431 386.434 409.406 391.161C409.946 394.942 419.685 397.238 425.611 397.238C437.764 397.238 445.762 392.028 448.462 387.301C444.288 381.899 445.423 374.779 446.541 370.903C447.276 363.571 455.581 360.012 454.644 353.346C453.706 346.679 439.789 325.659 435.063 324.984Z" fill="#FFD2E0"/>
<path d="M470.848 444.507C467.607 452.611 456.669 501.906 454.644 516.086C454.644 519.238 455.994 524.73 455.994 529.592C455.994 535.669 458.695 543.772 454.644 544.448C450.593 545.123 450.202 540.506 449.242 536.344C447.217 527.566 443.841 528.916 443.841 523.514C443.841 518.349 446.928 518.74 447.199 514.651C447.17 514.504 447.189 514.454 447.211 514.408C447.215 514.295 447.217 514.179 447.217 514.06C440.23 483.95 448.164 443.299 451.268 437.755C453.141 433.028 474.9 434.378 470.848 444.507Z" fill="#FFD2E0"/>
<path d="M581.58 437.079C550.594 440.549 525.294 432.848 520.137 428.976C506.029 428.557 485.258 428.862 483.002 424.249C479.552 417.196 496.679 400.706 499.881 398.589C510.684 403.316 528.16 409.245 530.352 410.483C537.951 414.774 571.173 425.081 584.956 428.976L595.759 428.976C604.537 428.976 607.237 427.625 609.263 427.625C611.289 427.625 611.964 427.625 611.964 430.327C611.964 433.028 605.212 437.079 599.135 437.079C593.058 437.079 590.358 440.456 586.982 440.456C584.281 440.456 582.255 438.205 581.58 437.079Z" fill="#FFD2E0"/>
<path d="M511.347 429.423C504.228 449.356 468.435 467.391 451.429 473.917C452.615 462.052 454.988 437.253 454.988 432.982C454.988 428.711 437.981 423.292 429.478 421.117L454.988 394.421C463.887 395.805 485.244 399.878 499.482 405.099C513.72 410.32 513.325 423.49 511.347 429.423Z" fill="#5871CA"/>
<path d="M424.139 429.423C412.255 426.181 403.863 420.597 403.329 407.367C403.035 400.078 404.679 396.563 409.71 389.81C410.493 388.217 411.306 386.825 412.106 385.759L446.089 381.962C448.462 391.454 467.038 389.173 485.244 392.048C496.516 393.827 519.912 401.74 526.889 409.393C527.429 415.336 512.935 439.33 508.659 443.157C505.418 432.352 500.556 421.548 489.078 409.393C500.556 421.548 504.382 435.279 507.308 445.183C507.308 448.964 495.83 458.238 489.753 462.064C489.078 460.039 479.542 431.002 474.899 418.847C479.829 431.753 486.377 455.312 486.377 462.74C486.377 468.142 468.372 476.02 458.694 478.271C460.694 476.771 463.233 452.411 464.492 437.725C463.413 447.732 459.366 475.38 455.318 478.271C450.592 481.647 422.909 474.895 427.636 474.895C432.362 474.895 438.439 460.714 439.789 451.26C440.869 443.697 444.289 433.478 446.089 431.002C444.739 431.227 436.022 432.664 424.139 429.423Z" fill="#6885EF"/>
<path d="M425.441 397.238C437.974 397.238 444.491 389.777 447.276 384.929C444.575 379.838 445.866 377.153 446.541 372.253C443.187 375.024 440.063 380.616 425.441 380.616C421.542 380.616 416.504 379.53 414.647 377.81C412.867 384.929 411.431 386.434 410.081 389.135C409.406 393.187 419.331 397.238 425.441 397.238Z" fill="#6885EF"/>
<path d="M400.629 358.748C395.227 358.748 392.526 356.497 391.851 355.371C391.851 343.217 399.953 337.139 402.654 336.464C404.815 335.924 410.756 331.962 413.457 330.386C413.457 331.962 415.078 335.924 421.56 336.464C428.041 337.004 430.562 334.438 431.012 333.087C430.804 330.075 430.337 327.01 427.636 325.659C429.437 324.759 433.983 323.228 437.764 324.309C439.563 324.823 441.815 324.984 445.191 327.685C450.033 331.559 449.35 339.118 450.593 344.587C455.581 352.299 454.036 360.031 450.593 363.475C447.217 366.851 448.784 367.131 447.892 368.202C446.767 369.552 443.694 372.302 435.739 374.954C427.636 377.655 417.959 374.729 414.132 372.928C414.132 368.877 414.185 366.39 412.782 362.124C411.638 358.644 408.731 357.397 408.731 355.371C407.651 358.613 404.005 358.748 400.629 358.748Z" fill="white"/>
<path d="M413.331 318.797C415.564 323.304 413.331 331.062 413.331 331.062C417.508 335.789 431.687 333.763 429.662 327.685C427.469 324.984 427.717 317.545 427.469 314.289C427.469 314.289 411.099 314.289 413.331 318.797Z" fill="#FFD2E0"/>
<path d="M405.147 307.528C406.932 312.937 413.331 319.047 415.564 321.05C417.052 319.047 418.391 319.398 420.772 318.797C423.748 318.045 429.701 317.294 431.933 315.041C434.079 312.874 433.631 304.839 432.444 301.28C431.594 298.727 428.957 292.504 427.469 288.748C425.981 284.992 416.307 278.982 408.867 284.992C401.426 291.001 402.914 300.767 405.147 307.528Z" fill="#FFD2E0"/>
<path d="M410.756 299.999C411.935 307.427 417.508 309.453 413.457 320.257C402.654 316.206 397.252 299.999 399.278 290.545C401.303 281.091 414.132 276.365 420.884 278.39C426.286 280.011 431.176 289.23 431.851 292.381C425.919 293.081 414.807 298.907 413.457 298.907C412.376 298.907 411.485 294.881 411.935 293.081C410.756 295.94 410.403 297.774 410.756 299.999Z" fill="#F9759C"/>
<defs>
<linearGradient id="paint0_linear" x1="379.868" y1="233.026" x2="417.431" y2="422.57" gradientUnits="userSpaceOnUse">
<stop stop-color="#FF90B1" stop-opacity="0.2"/>
<stop offset="1" stop-color="#96ADFF"/>
</linearGradient>
<linearGradient id="paint1_linear" x1="437.268" y1="107.711" x2="468.206" y2="113.135" gradientUnits="userSpaceOnUse">
<stop stop-color="white"/>
<stop offset="1" stop-color="white" stop-opacity="0"/>
</linearGradient>
<linearGradient id="paint2_linear" x1="332.074" y1="261.413" x2="301.438" y2="256.043" gradientUnits="userSpaceOnUse">
<stop stop-color="white"/>
<stop offset="1" stop-color="white" stop-opacity="0"/>
</linearGradient>
</defs>
</svg>
