<svg width="800" height="600" viewBox="0 0 800 600" fill="none" xmlns="http://www.w3.org/2000/svg">
<path d="M329.022 315.772L329.022 315.772C419.608 315.772 432.054 434.128 499.05 434.128C549.377 434.128 586.105 334.606 561.066 256.602C539.26 188.674 488.712 144.041 407.186 134.258C329.022 124.879 213.524 163.343 213.524 243.709C213.524 315.772 272.817 315.772 329.022 315.772Z" fill="#1E379D" fill-opacity="0.1"/>
<path d="M415.548 513.61C415.548 523.262 348.385 531.087 265.536 531.087C182.686 531.087 115.523 523.262 115.523 513.61C115.523 503.958 182.686 496.133 265.536 496.133C348.385 496.133 415.548 503.958 415.548 513.61Z" fill="#F3F3F3"/>
<path d="M568.407 520.786C590.501 500.292 539.42 504.367 513.466 504.367C487.512 504.367 422.345 500.876 422.345 512.995C422.345 525.114 449.573 514.726 481.976 520.786C532.897 530.308 542.277 545.024 568.407 520.786Z" fill="#F3F3F3"/>
<path fill-rule="evenodd" clip-rule="evenodd" d="M651.318 354.583C651.246 354.615 651.176 354.648 651.108 354.681C647.666 356.372 640.951 363.275 639.678 365.702C642.198 365.817 651.937 365.088 655.383 363.399C658.868 374.247 657.435 385.799 652.032 395.277C646.808 390.364 639.952 385.846 631.549 384.309C639.074 389.649 644.508 395.667 648.252 400.778C644.749 405.055 640.294 408.667 635.007 411.263C634.129 411.694 633.217 412.119 632.273 412.534C629.639 405.934 625.379 399.145 618.497 394.778C622.633 401.881 624.976 408.948 626.297 414.888C620.133 417.05 613.157 418.724 606.113 419.392C605.781 413.119 604.254 406.61 600.417 401.206C601.283 407.911 601.095 414.225 600.442 419.704C590.937 419.828 581.67 417.86 574.478 412.519C579.608 408.466 581.336 401.089 578.241 394.787C575.203 388.6 568.503 385.457 562.256 386.84C562.752 378 567.073 369.297 573.116 361.663C577.622 364.956 582.394 369.038 586.957 374.025C584.858 367.643 581.015 362.143 576.624 357.553C581.626 352.097 587.394 347.352 593.013 343.727C596.783 348.902 600.681 355.318 603.839 362.88C604.06 354.906 601.547 347.269 598.165 340.691C598.754 340.378 599.338 340.079 599.915 339.796C605.212 337.195 610.805 335.879 616.342 335.726C617.924 341.88 619.169 349.204 619.33 357.305C622.26 350.441 622.855 342.974 622.32 336.013C633.991 337.459 644.815 344.044 651.318 354.583Z" fill="#3C56C6"/>
<path d="M506.022 438.963C523.084 409.384 561.698 395.941 577.806 390.195L578.876 392.374C562.63 397.106 525.092 413.915 509.897 443.55C496.774 469.146 500.715 494.803 505.674 509.209C506.164 510.631 505.548 512.21 504.198 512.873C502.669 513.623 500.825 512.908 500.279 511.294C495.195 496.257 490.091 466.581 506.022 438.963Z" fill="#3C56C6"/>
<path d="M374.132 448.52C393.934 431.024 417.276 433.119 428.692 432.858C427.42 438.526 424.85 442.359 418.053 450.881C411.255 459.403 400.121 467.661 386.005 467.438C393.668 486.657 361.083 510.319 357.914 512.847C357.872 512.939 357.821 513.001 357.76 513.033C357.594 513.118 357.658 513.052 357.914 512.847C359.413 509.617 350.062 469.786 374.132 448.52Z" fill="#F9759C"/>
<path d="M232.827 483.025C243.337 500.93 220.69 503.901 223.603 508.27C256.13 508.27 272.887 483.51 263.177 461.664C253.468 439.817 219.719 427.681 175.541 404.378C134.547 382.754 142.46 346.919 156.426 325.962C157.047 325.03 155.931 323.861 155.019 324.51C111.218 355.663 115.445 415.324 159.771 436.905C205.64 459.237 222.317 465.12 232.827 483.025Z" fill="#1A2C76" fill-opacity="0.2"/>
<mask id="mask0" mask-type="alpha" maskUnits="userSpaceOnUse" x="137" y="484" width="82" height="39">
<ellipse cx="178.055" cy="503.347" rx="17.2513" ry="41.2347" transform="rotate(-77.7769 178.055 503.347)" fill="#8D8D8D"/>
</mask>
<g mask="url(#mask0)">
<ellipse cx="180.728" cy="491.011" rx="17.2513" ry="41.2347" transform="rotate(-77.7769 180.728 491.011)" fill="#F9759C"/>
</g>
<mask id="mask1" mask-type="alpha" maskUnits="userSpaceOnUse" x="142" y="444" width="75" height="72">
<ellipse cx="179.498" cy="480.087" rx="19.9046" ry="47.5768" transform="rotate(-47.2224 179.498 480.087)" fill="#C4C4C4"/>
</mask>
<g mask="url(#mask1)">
<ellipse cx="189.389" cy="469.397" rx="19.9046" ry="47.5768" transform="rotate(-47.2224 189.389 469.397)" fill="#FF9BB9"/>
</g>
<mask id="mask2" mask-type="alpha" maskUnits="userSpaceOnUse" x="171" y="419" width="50" height="92">
<ellipse cx="195.62" cy="465.08" rx="19.9046" ry="47.5768" transform="rotate(-19.227 195.62 465.08)" fill="#F4A0D7"/>
</mask>
<g mask="url(#mask2)">
<ellipse cx="210.184" cy="462.167" rx="19.9046" ry="47.5768" transform="rotate(-19.227 210.184 462.167)" fill="#FFB8CD"/>
</g>
<path d="M252.428 508.755V496.133H259.224L257.133 508.755H252.428Z" fill="#FFC6EC"/>
<path d="M292.993 511.442L291.266 498.938L297.518 498.075L297.321 510.844L292.993 511.442Z" fill="#FFC6EC"/>
<path d="M255.341 450.157C255.729 440.059 251.942 392.241 254.855 385.588C259.224 386.559 264.953 387.045 274.274 387.045C283.595 387.045 290.78 386.074 293.693 385.588C298.063 401.95 298.548 440.641 298.548 445.302C298.548 449.962 300.652 489.013 298.548 502.444C294.664 504.386 291.266 502.444 291.266 502.444C291.428 492.087 285.343 453.264 284.955 450.157C284.566 447.05 277.834 422.808 274.274 415.202C273.303 419.895 270.876 445.108 270.876 450.157C270.876 455.206 263.432 485.273 259.71 499.675C255.341 501.473 252.428 499.675 252.428 499.675C252.266 487.377 254.952 460.255 255.341 450.157Z" fill="#3C56C6"/>
<path d="M252.428 297.904C252.751 296.933 254.078 294.603 256.797 293.049C260.195 291.107 266.507 290.622 267.963 293.049C268.962 294.714 268.934 296.447 266.507 297.904C264.262 299.251 256.206 301.428 255.773 302.515C255.989 302.848 256.04 302.972 255.826 302.759C255.753 302.685 255.738 302.604 255.773 302.515C255.203 301.638 253.484 299.312 252.428 297.904Z" fill="#FFC6EC"/>
<path d="M323.307 402.284C323.619 403.271 324.895 405.64 327.509 407.22C330.777 409.195 336.847 409.688 338.247 407.22C339.208 405.527 339.181 403.765 336.847 402.284C334.688 400.914 326.941 398.701 326.524 397.594C326.732 397.256 326.781 397.13 326.576 397.347C326.505 397.422 326.49 397.504 326.524 397.594C325.977 398.486 324.323 400.852 323.307 402.284Z" fill="#FFC6EC"/>
<path d="M266.021 319.563V328.787C267.154 329.273 268.448 330.244 272.332 330.244C276.216 330.244 277.834 329.273 278.643 328.787L277.187 324.418C277.511 324.094 277.284 324.418 279.614 324.418C281.945 324.418 285.195 318.689 284.955 314.079C284.832 311.737 283.984 311.698 283.984 307.426C283.984 296.746 278.643 291.891 271.361 291.891C264.079 291.891 262.623 303.542 262.623 305.97C262.623 308.397 266.021 315.679 266.021 319.563Z" fill="#FFC6EC"/>
<path d="M272.818 321.991C270.487 322.767 268.287 323.627 266.507 323.303C265.05 323.303 264.378 316.936 263.108 314.079C261.166 309.71 261.166 305.484 261.166 302.571C261.166 299.659 262.623 290.29 272.818 290.29C280.974 290.29 278.643 292.232 287.868 290.29C289.324 298.544 285.634 303.981 282.527 304.369C279.42 304.758 276.702 310.195 276.216 311.652C274.808 315.877 275.148 321.214 272.818 321.991Z" fill="#F9759C"/>
<path d="M223.299 325.389C223.299 337.526 243.527 342.722 253.884 351.946C253.884 351.946 255.07 364.342 255.341 370.394C255.717 378.803 253.884 391.899 253.884 391.899C256.312 402.094 264.176 403.065 274.274 403.065C284.372 403.065 292.722 392.385 295.15 391.899C294.179 383.97 290.489 361.947 291.266 363.112C292.237 364.568 298.504 377.111 305.83 386.559C311.499 393.87 319.424 400.638 322.822 403.065L327.677 398.211C327.677 398.211 313.29 380.147 310.2 373.451C304.374 360.829 301.655 348.303 298.548 340.924C295.441 333.545 283.66 329.111 279.129 328.302C279.129 328.302 271.847 331.215 266.021 328.302C253.399 332.041 246.443 326.648 237.863 323.788C238.834 319.419 257.768 302.571 257.768 302.571L253.399 296.26C253.399 296.26 223.299 314.223 223.299 325.389Z" fill="#6386FF"/>
<path d="M257.768 506.472C255.341 507.784 252.428 506.472 252.428 506.472C251.942 508.738 250.971 513.463 250.971 514.24C250.971 515.211 250.486 517.638 259.224 517.638C267.963 517.638 267.963 515.696 267.963 514.24C267.963 512.783 266.992 511.327 263.594 511.327C260.875 511.327 259.548 508.09 257.768 506.472Z" fill="#B2C3FF"/>
<path d="M297.238 509.83C295.15 511.183 292.956 510.199 292.956 510.199C292.454 512.727 291.584 518.068 292.114 519.215C292.777 520.649 299.243 520.589 301.92 520.358C304.597 520.128 312.627 519.436 312.457 517.463C312.287 515.49 308.948 514.287 306.271 514.518C304.13 514.702 299.357 511.47 297.238 509.83Z" fill="#B2C3FF"/>
<path d="M321.481 268.78C328.226 265.612 361.322 257.564 374.65 256.52C388.14 255.465 389.177 295.252 374.65 296.835C366.843 297.687 337.565 303.622 328.226 306.262C318.886 308.901 311.35 300.628 310.066 291.48C307.99 276.699 315.522 271.578 321.481 268.78Z" fill="#3C56C6"/>
<path d="M536.702 161.866C525.068 164.121 416.874 188.3 357.231 201.334C352.636 202.338 349.395 206.398 349.395 211.101V353.742C349.395 360.127 355.297 364.877 361.534 363.511L539.245 324.595C543.823 323.593 547.09 319.546 547.106 314.86L547.598 167.145C547.598 163.978 547.598 159.754 536.702 161.866Z" fill="url(#paint0_linear)"/>
<path d="M417.49 374.088V227.891C417.49 223.919 419.799 220.342 423.442 218.759C441.97 210.705 499.896 185.688 542.035 169.269C547.464 167.154 548.016 166.626 548.016 166.626C548.016 170.809 548.443 292.671 548.547 322.085C548.56 325.978 546.313 329.484 542.788 331.135L431.731 383.144C425.1 386.249 417.49 381.41 417.49 374.088Z" fill="#6386FF"/>
<path d="M485.291 255.092L455.772 267.067C452 268.597 449.532 272.262 449.532 276.333V298.873C449.532 305.934 456.652 310.771 463.216 308.17L492.735 296.47C496.547 294.959 499.05 291.274 499.05 287.173V264.359C499.05 257.263 491.866 252.425 485.291 255.092Z" fill="#9AB0FF"/>
<ellipse rx="10.1437" ry="13.0688" transform="matrix(0.998351 0.0574063 -0.0971831 0.995267 474.013 281.385)" fill="#E0E7FF"/>
<defs>
<linearGradient id="paint0_linear" x1="371.37" y1="283.979" x2="547.598" y2="279.125" gradientUnits="userSpaceOnUse">
<stop stop-color="#3C56C6"/>
<stop offset="1" stop-color="#5C81FF"/>
</linearGradient>
</defs>
</svg>
