<svg width="800" height="600" viewBox="0 0 800 600" fill="none" xmlns="http://www.w3.org/2000/svg">
<path d="M172.986 207.141C177.436 152.939 214.165 117.861 265.802 102.42C323.855 85.0594 354.242 128.774 443.271 154.363C522.704 177.194 605.973 151.418 624.516 249.542C646.139 363.959 505.829 423.983 402.001 418.133C286.717 411.639 163.43 323.516 172.986 207.141Z" fill="url(#paint0_linear)"/>
<ellipse cx="436.488" cy="482.934" rx="181.762" ry="25.7656" fill="#F3F3F3"/>
<ellipse cx="238.815" cy="482.715" rx="102.815" ry="24.5387" fill="#F3F3F3"/>
<path d="M203.445 412.81C214.347 437.578 204.978 472.832 198.93 487.363C195.631 468.814 191.989 442.978 176.732 423.257C159.271 400.685 152.482 376.408 149.819 355.282C153.46 370.912 189.819 381.851 203.445 412.81Z" fill="#D0DBFF"/>
<path d="M218.602 383.909C224.265 421.149 207.767 464.129 198.81 480.964C199.369 455.035 194.631 414.183 186.424 388.227C176.21 355.927 175.795 315.096 177.512 286.005C177.89 308.201 211.523 337.358 218.602 383.909Z" fill="#6484EF"/>
<mask id="mask0" mask-type="alpha" maskUnits="userSpaceOnUse" x="571" y="464" width="87" height="39">
<ellipse rx="17.3297" ry="43.4394" transform="matrix(-0.222524 -0.974927 -0.979511 0.20139 614.438 483.127)" fill="#8D8D8D"/>
</mask>
<g mask="url(#mask0)">
<ellipse rx="17.3297" ry="43.4394" transform="matrix(-0.222524 -0.974927 -0.979511 0.20139 611.617 470.765)" fill="#F9759C"/>
</g>
<mask id="mask1" mask-type="alpha" maskUnits="userSpaceOnUse" x="573" y="424" width="80" height="72">
<ellipse rx="20.4463" ry="49.0697" transform="matrix(-0.698066 -0.716034 -0.751389 0.65986 612.915 459.818)" fill="#C4C4C4"/>
</mask>
<g mask="url(#mask1)">
<ellipse rx="20.4463" ry="49.0697" transform="matrix(-0.698066 -0.716034 -0.751389 0.65986 602.471 449.106)" fill="#FF9BB9"/>
</g>
<mask id="mask2" mask-type="alpha" maskUnits="userSpaceOnUse" x="570" y="399" width="52" height="92">
<ellipse rx="20.9023" ry="47.9595" transform="matrix(-0.949342 -0.314245 -0.344919 0.938633 595.893 444.78)" fill="#F4A0D7"/>
</mask>
<g mask="url(#mask2)">
<ellipse rx="20.9023" ry="47.9595" transform="matrix(-0.949342 -0.314245 -0.344919 0.938633 580.516 441.861)" fill="#FFB8CD"/>
</g>
<path d="M196.754 488.014V477.757H292.613V489.093C292.613 489.093 283.458 497.866 244.145 497.731C205.369 497.597 196.754 488.014 196.754 488.014Z" fill="url(#paint1_linear)"/>
<ellipse cx="244.684" cy="477.757" rx="47.9292" ry="10.7965" fill="#6386FF"/>
<path d="M200.924 475.209V381.951H297.321L297.835 474.707C297.85 477.332 296.162 479.647 293.617 480.294C286.269 482.161 270.014 485.597 249.93 485.597C228.139 485.597 210.182 480.877 203.61 478.897C201.986 478.408 200.924 476.905 200.924 475.209Z" fill="url(#paint2_linear)"/>
<g opacity="0.3">
<path d="M201.464 395.446C207.106 397.786 223.74 402.464 247.325 402.464C270.911 402.464 290.639 398.505 297.554 396.526" stroke="#001E87" stroke-opacity="0.3" stroke-linecap="round" stroke-linejoin="round"/>
<path d="M201.463 404.623C207.104 406.963 223.738 411.641 247.324 411.641C270.91 411.641 290.637 407.682 297.553 405.703" stroke="#001E87" stroke-opacity="0.3" stroke-linecap="round" stroke-linejoin="round"/>
<path d="M201.463 413.8C207.104 416.14 223.738 420.818 247.324 420.818C270.91 420.818 290.637 416.859 297.553 414.88" stroke="#001E87" stroke-opacity="0.3" stroke-linecap="round" stroke-linejoin="round"/>
<path d="M201.463 422.977C207.104 425.317 223.738 429.995 247.324 429.995C270.91 429.995 290.637 426.036 297.553 424.057" stroke="#001E87" stroke-opacity="0.3" stroke-linecap="round" stroke-linejoin="round"/>
<path d="M201.463 432.155C207.104 434.494 223.738 439.172 247.324 439.172C270.91 439.172 290.637 435.214 297.553 433.234" stroke="#001E87" stroke-opacity="0.3" stroke-linecap="round" stroke-linejoin="round"/>
<path d="M201.463 441.332C207.104 443.671 223.738 448.349 247.324 448.349C270.91 448.349 290.637 444.391 297.553 442.411" stroke="#001E87" stroke-opacity="0.3" stroke-linecap="round" stroke-linejoin="round"/>
<path d="M201.463 450.509C207.104 452.848 223.738 457.526 247.324 457.526C270.91 457.526 290.637 453.568 297.553 451.588" stroke="#001E87" stroke-opacity="0.3" stroke-linecap="round" stroke-linejoin="round"/>
<path d="M201.463 459.686C207.104 462.025 223.738 466.703 247.324 466.703C270.91 466.703 290.637 462.745 297.553 460.765" stroke="#001E87" stroke-opacity="0.3" stroke-linecap="round" stroke-linejoin="round"/>
<path d="M201.463 468.863C207.104 471.202 223.738 475.881 247.324 475.881C270.91 475.881 290.637 471.922 297.553 469.942" stroke="#001E87" stroke-opacity="0.3" stroke-linecap="round" stroke-linejoin="round"/>
</g>
<ellipse cx="248.853" cy="381.951" rx="47.9292" ry="10.7965" fill="#6386FF"/>
<path d="M193.385 383.57V373.314H289.243V384.65C289.243 384.65 280.088 393.422 240.775 393.287C201.999 393.154 193.385 383.57 193.385 383.57Z" fill="url(#paint3_linear)"/>
<ellipse cx="241.314" cy="373.313" rx="47.9292" ry="10.7965" fill="#6386FF"/>
<path d="M204.156 373.854V363.597H300.014V374.933C300.014 374.933 290.859 383.705 251.546 383.57C212.77 383.437 204.156 373.854 204.156 373.854Z" fill="url(#paint4_linear)"/>
<ellipse cx="252.085" cy="363.597" rx="47.9292" ry="10.7965" fill="#6386FF"/>
<path d="M197.693 364.137V353.88H293.551V365.216C293.551 365.216 284.396 373.988 245.083 373.853C206.307 373.72 197.693 364.137 197.693 364.137Z" fill="url(#paint5_linear)"/>
<ellipse cx="245.623" cy="353.88" rx="47.9292" ry="10.7965" fill="#6386FF"/>
<path d="M354.114 476.275C347.559 474.204 343.862 442.165 343.007 423.41L377.985 440.475C372.76 453.271 360.669 478.347 354.114 476.275Z" fill="#FFACC5"/>
<path d="M532.976 473.903C539.635 471.128 539.913 438.714 538.699 419.881L503.84 440.697C510.777 452.922 526.316 476.678 532.976 473.903Z" fill="#FFACC5"/>
<path fill-rule="evenodd" clip-rule="evenodd" d="M442.346 483.989C461.261 483.989 479.088 479.949 494.739 472.809C502.189 484.038 511.488 495.613 516.249 493.628C521.308 491.52 522.684 472.31 522.521 454.942C542.605 437.309 555.003 413.083 555.003 386.348C555.003 367 548.511 348.967 537.311 333.796C538.669 325.981 539.944 314.207 536.8 313.856C534.19 313.566 529.103 317.007 525.164 320.153C504.579 300.817 475.094 288.706 442.346 288.706C380.127 288.706 329.688 332.422 329.688 386.348C329.688 412.41 341.469 436.087 360.668 453.598C360.438 471.199 361.684 491.21 366.584 493.359C371.217 495.39 380.392 483.136 387.531 471.672C403.755 479.518 422.448 483.989 442.346 483.989Z" fill="#FFB8CD"/>
<path d="M411.566 308.113C411.566 307.107 412.163 306.207 413.115 305.881C417.153 304.495 428.909 301.087 446.277 301.334C463.611 301.58 475.898 304.681 480.18 305.933C481.189 306.228 481.846 307.156 481.846 308.207C481.846 309.874 480.229 311.088 478.615 310.671C472.934 309.202 460.412 306.452 446.277 306.452C432.345 306.452 420.425 309.124 414.883 310.607C413.238 311.047 411.566 309.815 411.566 308.113Z" fill="#F9759C"/>
<path d="M478.751 326.678C476.389 328.651 478.423 343.28 479.735 350.349C488.59 361.198 508.76 347.883 504.824 340.979C500.889 334.075 481.702 324.212 478.751 326.678Z" fill="url(#paint6_linear)"/>
<path d="M501.38 347.47C500.2 345.103 488.753 337.443 484.162 334.648V353.388C491.049 359.305 503.348 351.415 501.38 347.47Z" fill="#F9759C"/>
<ellipse cx="544.166" cy="351.522" rx="2.19385" ry="3.63904" fill="#F9759C"/>
<path d="M555.867 359.528C550.017 359.528 542.704 349.362 542.704 349.362C542.704 349.362 528.809 361.132 528.809 387.184C528.809 414.113 542.704 430.73 542.704 430.73C542.704 430.73 552.21 415.812 555.867 414.113V359.528Z" fill="#FFB8CD"/>
<ellipse cx="554.404" cy="387.185" rx="15.357" ry="27.6567" fill="url(#paint7_linear)"/>
<ellipse cx="551.479" cy="387.185" rx="2.19385" ry="10.1893" fill="#F9759C"/>
<ellipse cx="518.571" cy="357.344" rx="2.92513" ry="3.63904" fill="#F9759C"/>
<ellipse cx="561.717" cy="384.273" rx="2.19385" ry="10.1893" fill="#F9759C"/>
<path d="M330.18 348.376C337.559 348.376 340.019 356.266 340.019 362.184C340.019 363.17 340.511 367.609 337.067 367.609C333.623 367.609 336.575 354.294 330.18 354.294C327.191 354.294 325.201 356.742 323.88 360.124C327.43 368.383 327.433 377.964 321.325 377.964C314.544 377.964 314.522 366.351 318.717 357.676C317.057 352.943 314.459 349.203 310.501 348.376C314.427 348.23 317.924 350.756 320.622 354.386C323.062 350.859 326.332 348.376 330.18 348.376Z" fill="#F9759C"/>
<path d="M406.221 182.424C405.381 183.438 403.883 184.902 403.239 185.507L412.753 191.752L414.589 189.755C414.589 189.755 415.565 190.551 416.761 191.015C417.958 191.479 421.089 187.496 421.971 186.946C421.971 186.946 423.006 187.281 423.838 186.946C424.67 186.612 425.398 181.371 426.965 178.965C431.163 173.898 428.603 167.321 423.535 164.55C418.436 161.761 412.852 165.073 409.536 169.589C406.883 173.203 406.063 179.867 406.221 182.424Z" fill="#FFD2E0"/>
<path fill-rule="evenodd" clip-rule="evenodd" d="M423.288 182.977C423.751 182.753 424.254 182.309 424.654 181.681C425.054 181.053 425.246 180.406 425.258 179.885C425.27 179.354 425.101 179.047 424.898 178.913C424.694 178.779 424.35 178.748 423.878 178.977C423.415 179.201 422.913 179.645 422.513 180.273C422.113 180.901 421.92 181.548 421.909 182.07C421.897 182.6 422.065 182.907 422.269 183.041C422.473 183.175 422.817 183.206 423.288 182.977ZM421.958 183.53C422.811 184.09 424.23 183.402 425.128 181.993C426.025 180.583 426.062 178.985 425.209 178.425C424.356 177.864 422.937 178.552 422.039 179.961C421.141 181.371 421.105 182.969 421.958 183.53Z" fill="#6885EF"/>
<path fill-rule="evenodd" clip-rule="evenodd" d="M426.466 185.02C426.895 184.763 427.381 184.289 427.791 183.645C428.202 183 428.428 182.356 428.483 181.853C428.542 181.314 428.397 181.115 428.323 181.066C428.248 181.016 428.01 180.964 427.55 181.239C427.121 181.496 426.635 181.97 426.225 182.614C425.814 183.259 425.588 183.903 425.533 184.406C425.474 184.945 425.619 185.144 425.694 185.193C425.769 185.243 426.006 185.295 426.466 185.02ZM425.383 185.682C426.077 186.139 427.368 185.366 428.265 183.956C429.163 182.547 429.328 181.034 428.634 180.577C427.939 180.12 426.649 180.893 425.751 182.303C424.853 183.712 424.688 185.225 425.383 185.682Z" fill="#6885EF"/>
<path fill-rule="evenodd" clip-rule="evenodd" d="M425.661 180.553L425.662 180.553L425.666 180.552C425.671 180.551 425.678 180.549 425.687 180.547C425.706 180.543 425.734 180.537 425.769 180.531C425.84 180.517 425.936 180.502 426.039 180.494C426.143 180.485 426.247 180.485 426.335 180.496C426.429 180.509 426.479 180.531 426.5 180.548C426.587 180.615 426.669 180.761 426.733 180.933C426.762 181.013 426.783 181.087 426.796 181.141C426.803 181.168 426.808 181.189 426.811 181.203C426.813 181.21 426.814 181.216 426.814 181.219L426.815 181.222L426.815 181.222C426.844 181.379 426.993 181.48 427.146 181.448C427.3 181.416 427.401 181.263 427.372 181.106L427.094 181.164C427.372 181.106 427.372 181.106 427.372 181.106L427.372 181.105L427.372 181.105L427.372 181.102L427.37 181.095C427.369 181.089 427.367 181.081 427.365 181.071C427.361 181.051 427.354 181.023 427.346 180.989C427.328 180.921 427.302 180.827 427.264 180.724C427.194 180.532 427.066 180.254 426.846 180.084C426.714 179.982 426.553 179.94 426.416 179.922C426.274 179.903 426.128 179.906 426.001 179.916C425.873 179.927 425.758 179.945 425.674 179.961C425.632 179.969 425.598 179.976 425.574 179.981C425.561 179.984 425.552 179.986 425.545 179.988L425.536 179.99L425.534 179.991L425.533 179.991L425.533 179.991C425.533 179.991 425.532 179.991 425.597 180.272L425.532 179.991C425.38 180.029 425.285 180.186 425.321 180.342C425.356 180.497 425.508 180.592 425.661 180.553Z" fill="#6885EF"/>
<path fill-rule="evenodd" clip-rule="evenodd" d="M414.145 173.08C414.564 172.956 415.039 173.037 415.587 173.268C415.72 173.324 415.898 173.433 416.098 173.57C416.304 173.71 416.55 173.891 416.824 174.101C417.374 174.522 418.046 175.066 418.753 175.653C420.167 176.827 421.727 178.178 422.732 179.063C422.85 179.167 422.862 179.35 422.758 179.472C422.655 179.593 422.476 179.608 422.358 179.504C421.356 178.621 419.8 177.274 418.392 176.105C417.687 175.52 417.021 174.981 416.48 174.567C416.209 174.36 415.972 174.186 415.778 174.053C415.579 173.917 415.442 173.836 415.365 173.804C414.866 173.594 414.534 173.566 414.296 173.636C414.065 173.704 413.862 173.882 413.658 174.234C413.578 174.372 413.404 174.419 413.269 174.339C413.135 174.259 413.091 174.082 413.171 173.943C413.414 173.524 413.718 173.205 414.145 173.08Z" fill="#6885EF"/>
<path d="M362.401 302.943C362.401 302.943 370.481 294.843 373.42 291.161L381.5 294.843C381.5 294.843 367.053 305.888 366.074 305.888C365.094 305.888 362.401 302.943 362.401 302.943Z" fill="#FFD2E0"/>
<path d="M405.007 319.879C405.007 319.143 407.845 307.252 407.845 302.097L416.761 305.888L410.149 321.352C408.925 321.107 405.007 321.545 405.007 319.879Z" fill="#FFD2E0"/>
<path d="M402.803 324.297C402.803 323.119 404.272 319.879 405.007 318.406C406.182 317.817 409.414 319.634 410.884 320.615C411.618 322.825 420.433 322.825 421.168 324.297C421.902 325.77 421.902 327.979 419.699 327.979H405.741C404.272 327.979 402.803 325.77 402.803 324.297Z" fill="#3C3C3C"/>
<path d="M409.1 239.389C408.512 238.8 401.579 228.324 398.396 224.152L407.211 213.106L414.557 232.988C414.557 232.988 432.187 246.243 432.187 246.979C432.187 247.568 429.738 249.679 428.514 250.661C421.658 245.506 409.687 239.979 409.1 239.389Z" fill="#FFD2E0"/>
<path d="M431.834 246.654C431.834 247.311 428.954 248.759 427.57 249.853C428.835 251.957 431.864 256.702 433.857 257.359C436.349 258.179 440.501 258.179 442.162 255.717C443.823 253.255 438.84 249.152 437.179 248.331C435.851 247.675 433.1 247.118 431.834 246.654Z" fill="#FFD2E0"/>
<path d="M484.079 281.577C484.079 290.049 481.131 297.501 476.185 303.697H416.797C416.797 303.697 409.444 289.736 409.444 281.577C409.444 261.406 426.151 245.055 446.761 245.055C467.371 245.055 484.079 261.406 484.079 281.577Z" fill="#A2B3F0"/>
<path d="M484.079 285.842C484.079 294.314 479.962 302.832 475.016 309.028C475.016 309.028 461.479 305.829 446.761 305.829C432.043 305.829 416.907 309.028 416.907 309.028C416.907 309.028 409.444 294.001 409.444 285.842C409.444 265.671 426.151 249.32 446.761 249.32C467.371 249.32 484.079 265.671 484.079 285.842Z" fill="#6386FF"/>
<path d="M404.217 270.779C404.859 268.219 401.07 255.055 398.395 249.188C394.404 239.588 386.563 230.97 381.272 228.57C374.852 233.37 374.919 239.415 376.357 245.506C377.795 251.597 389.58 263.915 389.58 269.07C387.172 271.47 365.729 297.299 365.729 297.299C365.729 297.299 368.383 303.163 371.593 303.697C379.351 296.497 403.575 273.339 404.217 270.779Z" fill="#3C56C6"/>
<path d="M411.619 280.852C411.619 280.852 383.458 260.233 377.092 254.343C370.628 246.684 375.868 237.406 378.562 233.724C382.969 236.67 393.988 240.499 396.926 241.088C400.599 241.824 425.576 271.279 427.045 276.433C428.514 281.588 416.446 313.826 414.242 313.826C412.479 313.826 405.712 311.693 405.712 311.693C407.181 300.648 411.619 280.852 411.619 280.852Z" fill="#3C56C6"/>
<path d="M390.315 241.088C382.909 240.303 376.358 246.243 371.95 244.77C373.419 241.088 377.695 230.952 380.765 221.943C383.622 213.56 384.438 207.952 388.111 197.643C391.709 187.546 399.864 187.334 401.333 187.334L404.113 183.748C405.337 184.73 408.285 186.988 410.283 188.166C412.781 189.639 413.822 191.211 413.822 191.211V195.434C416.76 200.146 417.789 208.688 416.32 213.843C415.144 217.966 410.721 221.247 408.974 225.625C405.741 233.725 406.476 245.506 405.007 248.452C402.803 247.715 396.572 241.752 390.315 241.088Z" fill="url(#paint8_linear)"/>
<path d="M417.809 234.687C417.222 234.098 410.708 225.605 407.525 221.432L414.871 211.123L423.686 227.323C426.624 228.796 442.786 246.469 442.786 247.205C443.905 247.621 446.437 248.599 447.613 249.188C449.082 249.924 453.49 253.606 452.02 255.815C450.551 258.024 446.878 258.024 444.674 257.288C442.911 256.699 440.232 252.775 439.113 250.887C432.256 245.732 418.397 235.276 417.809 234.687Z" fill="#FFD2E0"/>
<path d="M398.711 212.596C395.772 208.178 394.208 200.974 400.915 197.132C406.057 194.187 411.199 198.605 412.668 202.287C414.894 207.862 420.774 219.917 420.593 220.099C419.418 221.277 413.737 225.499 411.043 227.463C411.043 227.463 401.645 217.007 398.711 212.596Z" fill="url(#paint9_linear)"/>
<path d="M358.535 309.57C356.433 307.989 360.984 303.679 362.943 302.206C364.167 303.188 366.616 304.71 366.616 305.888C366.616 307.361 369.746 312.515 374.154 313.252C376.767 313.688 375.623 317.67 374.154 317.67H369.012C364.604 317.67 361.474 311.779 358.535 309.57Z" fill="#3C3C3C"/>
<path d="M422.407 186.611C422.407 186.611 423.005 187.281 423.838 186.946C424.512 186.675 424.905 184.422 426.043 181.18C426.043 181.18 425.916 180.988 425.838 181.132C424.624 183.362 423.46 184.291 422.407 186.611Z" fill="#FFD2E0"/>
<path d="M412.109 162.957C408.91 162.957 407.311 168.288 407.311 172.019C407.311 174.718 406.73 178.781 406.356 180.981C407.298 177.914 410.176 174.076 414.241 171.486C416.524 170.032 417.44 171.486 420.639 168.821C420.639 172.019 429.702 172.019 429.702 176.817C431.301 170.42 435.033 170.953 432.367 165.622C428.823 158.534 416.907 155.493 412.109 162.957Z" fill="#A2B3F0"/>
<defs>
<linearGradient id="paint0_linear" x1="390.821" y1="417.542" x2="408.585" y2="102.221" gradientUnits="userSpaceOnUse">
<stop stop-color="#6386FF" stop-opacity="0.2"/>
<stop offset="1" stop-color="#A2B3F0" stop-opacity="0.05"/>
</linearGradient>
<linearGradient id="paint1_linear" x1="194.624" y1="495.547" x2="292.54" y2="498.271" gradientUnits="userSpaceOnUse">
<stop stop-color="#7796FF"/>
<stop offset="0.519337" stop-color="#92A9FF"/>
<stop offset="1" stop-color="#7595FF"/>
</linearGradient>
<linearGradient id="paint2_linear" x1="198.77" y1="474.261" x2="297.86" y2="474.798" gradientUnits="userSpaceOnUse">
<stop stop-color="#7493FF"/>
<stop offset="0.519337" stop-color="#92A9FF"/>
<stop offset="1" stop-color="#7292FF"/>
</linearGradient>
<linearGradient id="paint3_linear" x1="191.255" y1="391.104" x2="289.17" y2="393.828" gradientUnits="userSpaceOnUse">
<stop stop-color="#7090FF"/>
<stop offset="0.519337" stop-color="#92A9FF"/>
<stop offset="1" stop-color="#7292FF"/>
</linearGradient>
<linearGradient id="paint4_linear" x1="202.025" y1="381.387" x2="299.941" y2="384.111" gradientUnits="userSpaceOnUse">
<stop stop-color="#6E8FFF"/>
<stop offset="0.519337" stop-color="#94ABFF"/>
<stop offset="1" stop-color="#6F90FF"/>
</linearGradient>
<linearGradient id="paint5_linear" x1="195.562" y1="371.67" x2="293.478" y2="374.394" gradientUnits="userSpaceOnUse">
<stop stop-color="#6D8EFF"/>
<stop offset="0.519337" stop-color="#94ABFF"/>
<stop offset="1" stop-color="#6F90FF"/>
</linearGradient>
<linearGradient id="paint6_linear" x1="491.496" y1="326.291" x2="491.496" y2="354.454" gradientUnits="userSpaceOnUse">
<stop stop-color="#FFB8CD"/>
<stop offset="1" stop-color="#FFA4BF"/>
</linearGradient>
<linearGradient id="paint7_linear" x1="554.404" y1="359.528" x2="554.404" y2="414.841" gradientUnits="userSpaceOnUse">
<stop stop-color="#FFB8CD"/>
<stop offset="1" stop-color="#FFC9D9"/>
</linearGradient>
<linearGradient id="paint8_linear" x1="411.534" y1="193.846" x2="371.774" y2="228.369" gradientUnits="userSpaceOnUse">
<stop offset="0.263436" stop-color="#F9759C"/>
<stop offset="0.497238" stop-color="#FC7BA1"/>
<stop offset="1" stop-color="#FC7BA1"/>
</linearGradient>
<linearGradient id="paint9_linear" x1="414.557" y1="199.852" x2="397.622" y2="216.011" gradientUnits="userSpaceOnUse">
<stop offset="0.497238" stop-color="#F9759C"/>
<stop offset="1" stop-color="#FF82A7"/>
</linearGradient>
</defs>
</svg>
