<svg width="800" height="600" viewBox="0 0 800 600" fill="none" xmlns="http://www.w3.org/2000/svg">
<path d="M683.427 364.278C683.034 428.079 635.848 465.9 579.437 478.614C504.219 495.565 461.874 443.735 384.691 436.42C307.977 429.149 114.317 488.906 114.317 334.683C114.317 229.992 322.21 159.695 384.691 161.642C475.194 164.463 684.258 229.311 683.427 364.278Z" fill="#FF9BB9" fill-opacity="0.1"/>
<path d="M174.415 182.449C156.723 176.63 143.559 192.148 143.559 202.524C142.183 201.629 137.024 200.716 132.598 204.109C126.784 208.566 128.738 216.33 128.738 216.33H117.059C113.738 216.33 111.046 219.022 111.046 222.343C111.046 225.663 113.738 228.355 117.059 228.355H156.723H250.555H298.357C301.678 228.355 304.37 225.663 304.37 222.343C304.37 219.022 301.678 216.33 298.357 216.33H290.217C290.217 206.465 289.654 197.49 277.993 188.334C267.378 180 251.305 187.056 250.555 188.334C251.155 179.437 239.071 168.009 231.994 168.009C231.994 162.405 228.178 154 218.484 154C208.79 154 205.636 160.382 204.009 164.345C200.149 158.203 190.483 161.436 190.483 168.009C180.205 162.082 169.912 173.074 174.415 182.449Z" fill="#FF9BB9"/>
<path d="M609.225 260.565C598.288 260.565 593.702 269.572 592.777 274.075C591.994 273.575 589.872 273.131 587.65 275.361C585.429 277.592 586.155 280.58 586.796 281.795H571.075C568.943 281.795 567.217 283.523 567.217 285.655C567.217 287.786 568.918 289.514 571.05 289.514H676.634C678.766 289.514 680.466 287.786 680.466 285.655C680.466 283.523 682.194 281.795 684.326 281.795H686.705C688.472 281.795 689.904 280.363 689.904 278.596C689.904 276.831 688.475 275.4 686.71 275.397L669.484 275.37C666.285 275.366 663.694 272.771 663.694 269.572C663.694 267.427 663.054 263.996 658.995 263.996C655.748 263.996 654.082 265.426 653.655 266.141C653.997 261.166 647.674 256.491 644.47 254.775C643.829 252.631 644.256 248.128 636.353 247.056C630.03 246.198 626.598 250.415 625.672 252.631C621.913 251.773 619.976 253.703 619.478 254.775C613.497 253.575 610.15 258.135 609.225 260.565Z" fill="#FFB8CD"/>
<path d="M405.252 402.998L414.628 395.647L419.998 403.759L409.116 410.188L405.252 402.998Z" fill="#DFDDFE"/>
<path d="M393.366 408.812C395.186 404.965 401.713 403.128 404.75 402.691C406.475 405.125 408.924 408.998 408.808 410.688C407.851 424.572 407.119 426.88 410.366 435.07C409.84 437.044 406.664 441.071 404.154 439.534C399.608 436.751 391.091 413.621 393.366 408.812Z" fill="#C3CFFF"/>
<path d="M447.846 334.12C443.767 333.739 439.349 328.564 437.649 326.024L444.492 320.089C444.955 320.565 446.531 321.708 449.127 322.47C452.372 323.422 457.093 328.64 457.093 330.068C457.093 331.497 452.945 334.597 447.846 334.12Z" fill="#FFC6EC"/>
<path d="M219.979 409.12L277.358 349.996C277.83 349.509 278.454 349.197 279.128 349.111L654.372 301.057L222.897 414.112C219.959 414.882 217.865 411.299 219.979 409.12Z" fill="#3C56C6"/>
<path d="M639 310.035L270.48 455.073C268.213 455.966 265.88 453.924 266.466 451.558L289.365 359.086C289.656 357.911 290.626 357.027 291.823 356.845L637.444 304.279C640.979 303.741 642.326 308.726 639 310.035Z" fill="#3C56C6"/>
<path d="M331.002 449.516C325.718 432.947 300.89 387.038 289.972 357.942C289.31 356.177 290.46 354.277 292.323 354L653.055 300.383C656.488 299.873 657.908 304.626 654.757 306.075L336.691 452.384C334.597 453.348 331.702 451.713 331.002 449.516Z" fill="#6386FF"/>
<path d="M266.13 452.423L289.47 359.744C289.764 358.58 290.75 357.7 291.937 357.512C435.97 334.803 505.048 324.123 649.771 301.303L280.411 348.944C279.046 349.12 277.976 350.203 277.818 351.57L266.13 452.423Z" fill="#3C56C6"/>
<path d="M405.515 224.345C404.628 226.212 404.219 230.042 403.157 239.071L381.912 230.042C383.062 228.244 389.081 224.938 385.927 220.74C381.984 215.494 378.781 211.493 376.07 197.114C373.359 182.734 382.721 170.496 396.026 167.709C409.331 164.922 416.846 183.2 416.723 185.795C416.6 188.39 421.774 197.007 422.783 199.054C423.699 200.91 420.338 203.114 419.065 203.303C419.435 208.13 419.848 216.16 418.003 219.236C416.41 221.891 406.623 222.011 405.515 224.345Z" fill="#FFC6EC"/>
<path d="M371.109 187.535C368.876 194.85 378.863 211.382 384.135 218.733L386.633 217.824C387.132 213.666 390.881 213.044 392.475 198.704C396.783 176.4 412.185 188.598 416.434 172.682C417.762 167.708 412.716 160.467 404.75 160.467C396.783 160.467 393.02 164.293 386.633 167.371C375.008 172.973 373.899 178.392 371.109 187.535Z" fill="#92A9F8"/>
<path d="M410.163 302.95C396.41 288.981 390.981 274.843 384.826 266.997C384.826 255.846 398.835 247.174 405.839 252.13C407.511 253.312 409.519 258.883 412.324 266.046L422.276 287.402C432.841 305.091 447.761 319.692 447.761 321.041C447.761 323.023 441.393 325.997 438.21 327.236C430.569 321.66 417.064 309.959 410.163 302.95Z" fill="#ABBDF8"/>
<path d="M347.718 324.041C348.498 304.75 361.232 273.586 371.29 251.289C381.348 228.993 382.443 229.511 382.443 229.511C383.982 229.883 399.791 235.729 403.739 238.54C408.675 242.054 404.941 237.947 409.53 249.694C414.119 261.44 410.063 278.337 409.53 283.003C408.997 287.669 398.445 295.431 397.845 300.68C396.409 313.257 397.845 315.551 397.845 329.36C390.276 337.483 367.423 341.58 355.381 343.169C352.888 342.492 346.939 343.332 347.718 324.041Z" fill="#D6DFFF"/>
<path d="M479.105 343.169C473.911 343.576 461.138 331.522 458.426 328.593L464.292 321.165C464.982 321.682 469.507 325.611 472.931 326.027C477.212 326.548 486.65 332.547 486.979 334.406C487.308 336.265 485.597 342.659 479.105 343.169Z" fill="#FFC6EC"/>
<path d="M418.559 306.522C407.352 299.089 388.067 269.755 381.912 261.909C381.912 250.759 395.921 242.087 402.925 247.042C406.139 249.316 416.07 272.04 430.091 288.869C448.746 307.65 465.93 320.565 467.421 321.924C468.885 323.26 461.576 328.652 458.392 329.891C450.751 324.316 429.765 313.956 418.559 306.522Z" fill="#D6DFFF"/>
<path d="M401.032 367.6C386.232 364.362 355.888 364.413 350.577 340.513C365.979 340.513 385.654 330.422 397.845 326.704C403.157 330.422 435.331 342.834 445.114 349.542C463.703 362.289 472.201 372.352 472.201 378.222C472.201 384.093 443.16 432.1 439.035 432.687C435.736 433.157 432.161 429.361 430.786 427.404C435.304 411.945 443.278 380.792 439.035 379.853C433.732 378.679 418.028 371.318 401.032 367.6Z" fill="#3956C6"/>
<path d="M426.661 439.145L430.786 427.991L439.624 432.1L433.732 443.254L426.661 439.145Z" fill="#FFC6EC"/>
<path d="M419.591 450.298C419.119 446.072 423.715 441.101 426.072 439.145C428.822 440.319 432.943 442.341 433.732 443.841C440.214 456.169 440.803 458.517 447.874 463.801C448.463 465.757 447.874 470.845 444.927 470.845C439.592 470.845 420.18 455.582 419.591 450.298Z" fill="#C3CFFF"/>
</svg>
