<svg width="800" height="600" viewBox="0 0 800 600" fill="none" xmlns="http://www.w3.org/2000/svg">
<path d="M430.047 461.479C342.173 461.479 252.083 506.656 246 423.564C230 205 641.5 187 618 433.438C610.65 510.52 517.921 461.479 430.047 461.479Z" fill="url(#paint0_linear)" fill-opacity="0.1"/>
<path fill-rule="evenodd" clip-rule="evenodd" d="M479.802 505.93C470.933 509.777 450.92 512.46 427.652 512.46C408.032 512.46 390.726 510.552 380.465 507.647C374.802 509.09 365.931 510.019 355.958 510.019C338.861 510.019 325 507.288 325 503.919C325 500.55 338.861 497.819 355.958 497.819C361.999 497.819 367.635 498.16 372.399 498.749C378.702 494.006 401.05 490.499 427.652 490.499C450.92 490.499 470.933 493.182 479.802 497.029C485.339 496.005 492.785 495.379 500.975 495.379C518.072 495.379 531.933 498.11 531.933 501.479C531.933 504.848 518.072 507.579 500.975 507.579C492.785 507.579 485.338 506.953 479.802 505.93Z" fill="#F3F3F3"/>
<ellipse cx="467.969" cy="501.663" rx="2.395" ry="2.4401" fill="#6885EF"/>
<ellipse cx="476.351" cy="501.663" rx="2.395" ry="2.4401" fill="#6885EF"/>
<ellipse cx="455.993" cy="495.562" rx="2.395" ry="2.4401" fill="#6885EF"/>
<path d="M453 492.512C453 488.852 454.796 454.081 454.796 452.861C456.992 452.454 464.017 452.861 464.975 452.861C466.172 452.861 480.542 457.741 480.542 458.961C480.542 459.937 479.944 486.209 479.345 499.833L468.567 500.443L453 492.512Z" fill="#A4B8FF"/>
<path d="M469.166 459.571L454.796 454.081C453.998 466.891 453 492.024 453 492.512C453 493 463.378 498.002 468.567 500.443L469.166 459.571Z" fill="#6885EF"/>
<path d="M460.783 439.44L460.185 458.351H459.586C458.987 458.351 458.389 457.741 458.389 457.741L458.947 438.384C458.967 437.703 459.648 437.24 460.289 437.474L466.691 439.803C467.096 439.951 467.361 440.341 467.349 440.772L466.771 460.791C466.771 460.791 466.17 460.993 465.573 460.791C464.977 460.588 464.975 460.181 464.975 460.181L465.551 441.982C465.564 441.556 465.306 441.168 464.908 441.016L460.783 439.44Z" fill="#6885EF"/>
<path d="M538.279 464.878C537.082 486.228 502.354 499.649 501.157 499.649C501.157 493.142 504.51 477.078 517.922 464.878C531.334 452.677 526.703 433.766 522.712 425.836C528.3 431.733 539.237 447.797 538.279 464.878Z" fill="#F9759C"/>
<path d="M495.477 469.521C493.561 460.248 497.872 452.643 500.267 450C501.664 450 505.177 452.196 508.051 460.98C510.925 469.765 504.059 491.888 500.267 500.022C503.261 487.211 497.872 481.111 495.477 469.521Z" fill="#F8A5BE"/>
<path fill-rule="evenodd" clip-rule="evenodd" d="M359.632 421.467C360.635 424.56 360.812 427.641 359.678 430.032C358.551 432.41 357.237 432.983 354.683 433.603C352.129 434.222 345.183 430.032 336.683 423.603C341.683 427.603 349.667 434.14 349.667 434.14C349.667 434.14 353.37 444.393 349.667 446.962C347.327 448.586 343.742 448.201 340.062 446.933C340.637 443.75 342.803 436.951 343.427 436.454L344.877 435.298C344.868 434.621 344.556 433.225 343.382 433.065C342.499 432.944 342.147 432.896 341.849 433.003C341.652 433.073 341.478 433.212 341.189 433.442L341.189 433.442L341.189 433.442C340.609 433.904 341.461 435.509 341.959 436.253C342.575 438.503 339.371 443.568 337.692 445.82L337.607 445.969C334.427 444.577 331.368 442.71 329.183 441.103C329.074 441.022 328.965 440.941 328.858 440.86C330.086 438.712 335.823 432.49 336.715 432.264L338.595 431.788C338.85 431.195 339.086 429.866 337.99 429.298C337.168 428.872 336.839 428.701 336.504 428.685C336.282 428.674 336.057 428.731 335.682 428.826L335.682 428.826C334.93 429.017 335.145 430.724 335.346 431.554C335.078 433.735 329.946 436.973 327.414 438.319L326.567 438.908C324.567 437.004 322.869 434.818 321.511 432.489C321.654 432.494 321.803 432.407 321.953 432.195C322.846 430.934 328.956 426.48 329.739 426.417L331.305 426.291C331.603 425.87 332.004 424.887 331.227 424.316C330.652 423.893 330.418 423.72 330.159 423.663C329.981 423.624 329.792 423.639 329.473 423.665C328.847 423.716 328.742 425.045 328.768 425.703C328.204 427.333 323.614 429.156 321.39 429.863L320.363 430.322C317.391 424.101 316.777 417.215 319.183 412.103C321.553 407.066 329.136 404.804 336.93 405.273L336.944 406.243C337.24 408.608 337.522 413.562 336.288 414.456C335.683 414.564 334.528 414.938 334.746 415.574C334.852 415.886 334.917 416.075 335.02 416.24C335.18 416.496 335.43 416.693 336.069 417.194C336.91 417.854 337.629 417.253 337.883 416.871L337.339 415.281C337.068 414.486 338.522 407.48 339.284 406.333C339.549 405.933 339.334 405.649 338.921 405.452C342.316 405.859 345.67 406.783 348.571 408.222C348.272 408.131 347.983 408.055 347.731 407.998L347.483 409.36C347.332 412.162 346.565 417.944 344.709 418.655C343.876 418.622 342.246 418.754 342.39 419.543C342.569 420.53 342.569 420.53 343.784 421.753C344.757 422.732 345.856 422.227 346.284 421.852L345.924 419.878C345.745 418.891 349.306 411.195 350.59 410.07C350.812 409.875 350.869 409.682 350.807 409.496C351.107 409.691 351.399 409.894 351.683 410.103C354.378 412.084 356.901 415.297 358.544 418.75L358.359 418.966C357.032 421.1 353.808 425.328 351.52 425.169C350.639 424.822 348.834 424.297 348.661 424.97C348.582 425.277 348.532 425.472 348.538 425.665C348.55 426.001 348.735 426.331 349.241 427.236C349.878 428.377 351.268 428.405 351.883 428.276L352.317 426.594C352.488 425.932 356.873 422.911 359.632 421.467Z" fill="#6885EF"/>
<path d="M367.683 482.603C373.91 465.034 358.183 439.103 333.183 422.103C362.183 440.603 370.886 456.572 372.683 470.603C374.479 484.633 367.681 504.242 363.447 504.242H352.669C344.432 504.242 361.456 500.171 367.683 482.603Z" fill="#6885EF"/>
<path d="M412.483 494.787C411.525 493.323 409.289 474.046 408.291 467.336C407.995 465.384 414.156 464.489 417.273 464.286L415.476 494.787C414.878 495.397 413.441 496.251 412.483 494.787Z" fill="#FFC6EC"/>
<path d="M432.284 495.912C431.097 494.634 424.675 478.33 422.579 471.888C421.963 470.015 427.886 468.073 430.925 467.336L435.235 495.397C434.746 496.101 433.471 497.19 432.284 495.912Z" fill="#FFC6EC"/>
<path d="M418.47 389.253C417.033 389.253 416.275 390.473 416.075 391.083C418.67 391.896 423.979 393.401 424.458 392.913C425.057 392.303 423.859 391.083 423.859 390.473C423.859 389.863 420.267 389.253 418.47 389.253Z" fill="url(#paint1_linear)"/>
<ellipse rx="17.0398" ry="5.48698" transform="matrix(0.983174 0.182672 -0.176193 0.984356 419.425 396.547)" fill="#6885EF"/>
<path fill-rule="evenodd" clip-rule="evenodd" d="M396.317 394.133C395.718 392.71 394.64 389.253 395.119 386.813C395.718 383.763 396.915 382.543 398.113 383.152C399.31 383.763 400.508 385.593 400.508 388.033C400.508 389.965 400.117 392.853 399.915 394.095C399.952 396.525 400.149 405.184 400.508 409.384C401.757 409.656 403.973 409.954 406.126 410.242C408.596 410.574 410.984 410.894 411.738 411.154C412.767 410.763 414.391 410.476 416.191 410.328C416.513 409.447 416.674 407.992 416.674 407.553C416.275 407.35 414.758 406.089 414.279 405.113C413.68 403.893 413.081 402.063 413.68 399.623C414.279 397.183 415.596 394.248 419.787 394.858C423.979 395.468 425.056 399.623 424.457 402.063C423.859 404.503 421.463 406.944 420.266 407.553L420.799 410.265C422.816 410.384 424.62 410.711 425.627 411.295L425.655 411.214C429.248 413.044 434.637 422.56 434.637 424.024C436.034 426.058 438.948 432.077 439.427 435.005C439.513 435.534 439.536 435.977 439.51 436.349C439.559 436.419 439.611 436.492 439.667 436.568C439.712 436.629 439.76 436.692 439.809 436.757C439.969 436.967 440.15 437.194 440.338 437.431C441.275 438.608 442.42 440.048 442.42 441.105C442.42 442.935 440.597 444.665 440.025 444.155C439.785 443.94 439.231 442.699 438.778 441.685C438.553 441.18 438.353 440.732 438.229 440.495C437.857 439.782 437.63 438.055 437.63 438.055C436.559 436.282 434.932 432.55 433.687 429.697L433.684 429.691L433.68 429.681C433.072 428.287 432.556 427.105 432.242 426.464C430.524 425.298 427.822 422.48 426.254 420.439C426.242 421.577 425.981 422.973 425.705 424.444C425.39 426.124 425.057 427.904 425.057 429.514C425.057 430.561 425.578 432.22 426.132 433.985C427.193 437.362 428.375 441.125 426.254 441.715C419.668 443.545 411.801 442.197 410.687 440.495C409.489 438.665 411.286 430.734 411.884 428.294C412.359 426.362 411.706 424.047 411.116 421.955C410.962 421.406 410.811 420.872 410.687 420.364C410.666 420.28 410.646 420.191 410.627 420.098C410.561 419.784 410.504 419.424 410.456 419.03C409.726 418.677 408.669 418.241 407.461 417.743L407.445 417.737L407.43 417.731L407.425 417.729C403.62 416.162 398.328 413.982 396.915 411.824C394.999 408.896 395.718 398.81 396.317 394.133Z" fill="#FFC6EC"/>
<path d="M432.241 500.887C431.283 499.423 431.842 496.82 432.241 496.007L435.235 494.787C435.834 495.6 437.271 496.861 438.229 497.837C439.426 499.057 441.821 500.277 443.019 500.887C444.216 501.497 443.618 503.327 441.821 503.937C440.025 504.547 433.439 502.717 432.241 500.887Z" fill="#F7A6BF"/>
<path d="M409.606 498.717C411.043 497.741 411.802 495.463 412.001 494.446C412.48 493.958 414.596 494.243 415.594 494.446C415.794 496.073 416.193 499.449 416.193 499.937C416.193 500.547 412.001 504.207 410.205 504.207C408.409 504.207 407.211 504.207 406.613 502.377C406.014 500.547 407.81 499.937 409.606 498.717Z" fill="#F7A6BF"/>
<path d="M413.68 410.604L410.687 411.214V419.754C410.886 420.567 411.405 421.828 411.884 425.244C412.363 428.66 411.525 429.514 410.687 430.734C409.289 432.768 407.453 435.127 406.495 440.495C405.298 447.205 406.495 466.726 408.89 469.166C410.806 471.118 421.264 471.606 426.254 471.606L425.655 470.386C431.403 470.874 434.437 467.336 435.235 465.506L434.038 463.676C441.223 463.676 445.813 456.355 447.21 452.695C440.025 452.085 426.254 434.395 425.655 431.954C425.176 430.002 425.655 423.007 426.254 420.974C425.655 419.754 426.254 411.824 425.655 411.214C425.176 410.726 423.46 410.604 422.662 410.604L418.47 418.534C417.033 417.558 414.678 412.84 413.68 410.604Z" fill="#4066EA"/>
<path d="M425.655 410.604C422.662 409.994 423.26 405.724 422.662 405.114C420.525 402.937 417.871 399.992 417.872 396.573C415.787 398.898 414.878 401.453 414.878 401.453C414.878 401.453 414.07 405.251 414.878 406.898C413.081 405.678 411.884 402.673 411.884 401.453C411.884 398.491 412.908 396.75 414.878 394.743C416.075 393.523 419.788 394.358 419.788 394.358C419.788 394.358 424.364 395.761 425.851 396.573C427.288 397.358 431.044 400.233 432.242 401.453C433.439 402.673 433.689 403.458 434.287 405.898C434.886 408.338 435.834 408.774 437.63 410.604C439.427 412.434 439.427 413.654 439.427 414.874C439.427 416.094 437.63 421.398 434.287 421.398C435.787 419.898 434.038 417.314 432.84 417.314C431.643 417.314 430.445 416.094 429.847 414.264C429.248 412.434 428.649 411.214 425.655 410.604Z" fill="#F9759C"/>
<path d="M344 265L279.69 193C138 308 179.487 488.5 355.5 488.5C216.5 488.5 232.5 351.5 344 265Z" fill="url(#paint2_linear)"/>
<path d="M399.113 92.1653L275.568 195.11C271.995 198.087 271.642 203.449 274.795 206.869L331.3 268.165C334.291 271.41 339.325 271.677 342.643 268.765L460.694 165.159C464.02 162.24 464.401 157.198 461.552 153.812L410.541 93.1775C407.659 89.7523 402.551 89.2999 399.113 92.1653Z" fill="#4066EA"/>
<path d="M399.113 90.181L275.568 193.126C271.995 196.103 271.642 201.465 274.795 204.884L331.3 266.181C334.291 269.426 339.325 269.693 342.643 266.781L460.694 163.174C464.02 160.256 464.401 155.213 461.552 151.827L410.541 91.1933C407.659 87.7681 402.551 87.3157 399.113 90.181Z" fill="#6386FF"/>
<path opacity="0.7" d="M430.857 133.239L421.304 122.394C420.133 121.065 418.113 120.917 416.761 122.063L399.524 136.667C398.137 137.843 397.982 139.926 399.181 141.293L409.041 152.541C410.23 153.897 412.295 154.027 413.645 152.83L430.574 137.823C431.915 136.634 432.042 134.584 430.857 133.239Z" fill="url(#paint3_linear)"/>
<rect width="69.1782" height="2.89814" rx="1.44907" transform="matrix(0.762366 -0.647146 0.63305 0.774111 324.963 237.922)" fill="white" fill-opacity="0.2"/>
<rect width="97.8454" height="3.07636" rx="1.53818" transform="matrix(0.762366 -0.647146 0.63305 0.774111 331.168 245.063)" fill="white" fill-opacity="0.2"/>
<defs>
<linearGradient id="paint0_linear" x1="420.324" y1="290.109" x2="420.324" y2="474.269" gradientUnits="userSpaceOnUse">
<stop stop-color="#6785EF"/>
<stop offset="1" stop-color="#F9759C"/>
</linearGradient>
<linearGradient id="paint1_linear" x1="420.35" y1="389.253" x2="420.263" y2="391.693" gradientUnits="userSpaceOnUse">
<stop stop-color="#6885EF"/>
<stop offset="1" stop-color="#284BCA"/>
</linearGradient>
<linearGradient id="paint2_linear" x1="308.027" y1="231.19" x2="268.073" y2="482.056" gradientUnits="userSpaceOnUse">
<stop stop-color="#6785EF" stop-opacity="0.4"/>
<stop offset="1" stop-color="#6785EF" stop-opacity="0"/>
</linearGradient>
<linearGradient id="paint3_linear" x1="415.761" y1="120" x2="415.761" y2="154.478" gradientUnits="userSpaceOnUse">
<stop stop-color="white"/>
<stop offset="1" stop-color="white" stop-opacity="0"/>
</linearGradient>
</defs>
</svg>
